<svg xmlns="http://www.w3.org/2000/svg" width="76.631" height="172.354" viewBox="0 0 76.631 172.354">
  <g id="Groupe_201" data-name="Groupe 201" transform="translate(0 0)">
    <g id="Groupe_198" data-name="Groupe 198" transform="translate(0 0)">
      <g id="Groupe_197" data-name="Groupe 197" opacity="0.8">
        <path id="Tracé_526" data-name="Tracé 526" d="M335.447,271.312c-.367-1.315-.723-3.419-1.26-5.917s-1.187-5.4-1.991-8.333a117.773,117.773,0,0,0-5.321-15.379c-1.121-2.745-2.058-4.8-2.815-6.315-.651-1.268.785,1.694,2.815,6.315.848,2.088,1.805,4.577,2.812,7.551-1.577-3.606-3.28-6.961-4.578-9.318-.721-1.822-1.5-3.641-2.313-5.484-3.578-8.1-7.4-15.769-11.491-23.54-1.5-2.807-4.515-9.08-5.87-11.906,2.554,6,5.527,11.72,8.377,17.495,2.865,5.765,5.676,11.546,8.227,17.438l-.477-.924c-2.808-6.14-5.879-12.156-8.993-18.17-.51-1.031-1.04-2.066-1.613-3.12l1.613,3.12c1.332,2.7,2.511,5.37,3.888,8.334.886,1.811,2.011,3.83,2.861,5.66.712,1.485,1.5,2.792,2.244,4.176l1.237,2.759c.094.28.2.577.316.878a.268.268,0,0,0-.027-.032c-.87-1-4.055-7.211-7.527-13.524-3.451-6.316-7.012-12.88-7.839-14.861-1.359-3.128-2.027-6.25-3.379-9.845a19.026,19.026,0,0,1-1.171-3.175,3.478,3.478,0,0,0-.071-1.139c-.354-1.256-.772-2.514-1.031-3.79a8.046,8.046,0,0,1-.02-3.74,4.29,4.29,0,0,0,.106-.756c.04-.3.085-.649.134-1.016a8.33,8.33,0,0,1,.318-1.2l.245-.634c.1-.2.215-.4.33-.6a6.891,6.891,0,0,1,.782-1.076,9.118,9.118,0,0,1,.812-.775c.5-.389.9-.591,1.024-.559.91.347.989.411,1.4.217.2-.083.468-.225.946-.4a8.453,8.453,0,0,1,2.057-.353,4.589,4.589,0,0,1,1.209.227l.389.094c.136.03.185.054.281.076a1.559,1.559,0,0,0,.48.056c.565-.17.869-.2,1.287-.3a1.426,1.426,0,0,0,.61-.315,1.2,1.2,0,0,0,.337-.827,2.275,2.275,0,0,0-.034-.763l-.093-.334c-.035-.113-.1-.269-.153-.392l-.08-.19-.109-.219-.213-.417-.45-.779a28.377,28.377,0,0,1-2.011-3.773c-.1-.212-.924-1.61-1.805-2.926s-1.769-2.563-1.769-2.563c-3.184-3.547-4.8-6.131-8.017-8.22-2.464-3.629-7.227-7.02-10.491-10.263s-5.119-4.092-8.468-6.389a19.281,19.281,0,0,0-2.134-1.639c-.614-.32-1.522-1.753-2.444-2.448l-.006.442-1.229-.925c-.309-.231-.309-.083-.31.064,0,.3-.005.589-.621.275q-2-1.357-4.01-2.861-1.725-1.8-3.376-3.58a1.084,1.084,0,0,0-.054-.605l-.946-1.105c-.009-.441.3-.661.29-.957.606-.733-.378-2.722.542-3.091.311-.075,2.533,1.635,3.784,2.1.313.08-.012-.59-.02-1.033,1.267,1.053,1.574.837,1.249.167l.631.455-.01-.593c3.475,2.356,7.545,4.792,10.33,7.808.621.62,1.543,1.775,2.154,2.548a11.043,11.043,0,0,0,1.54,1.192c.3.684-.016.888-.026,1.331,2.463,1.754,7.63,5.77,6.655,6.519,1.8,1.625,1.767,2.364,3.539,4.156,2.333,2.39,5.287,5.431,8.13,8.509,1.514,1.721,3.017,3.335,4.484,5.02.543.632,1.066,1.251,1.558,1.847,1.331,1.617,2.592,3.214,3.768,4.836a36.22,36.22,0,0,1,3.162,5.1,14.463,14.463,0,0,1,.659,1.546c.1.312.206.623.295.937.065.317.143.633.2.95a5.444,5.444,0,0,1-.616,3.636,5.291,5.291,0,0,1-3,2.083,9.684,9.684,0,0,1-1.9.318l-.485.041c-.163.014-.278.005-.42.008l-.812,0a16.148,16.148,0,0,0-2.338.085,6.231,6.231,0,0,0-1.948.494,2.558,2.558,0,0,0-1.142.932,3.628,3.628,0,0,0-.5,1.626,9.735,9.735,0,0,0,.072,2.28,22.5,22.5,0,0,0,.485,2.539c.424,1.741.988,3.551,1.624,5.419,1.289,3.771,2.909,7.537,4.594,11.259s3.462,7.408,5.2,11.037c3.484,7.253,6.819,14.291,9.516,20.81a149.586,149.586,0,0,1,6.146,17.412,81.112,81.112,0,0,1,2.308,10.781C335.606,269.688,335.521,270.5,335.447,271.312Z" transform="translate(-265.972 -124.72)" fill="#fff"/>
      </g>
    </g>
    <g id="Groupe_200" data-name="Groupe 200" transform="translate(51.74 117.665)">
      <g id="Groupe_199" data-name="Groupe 199" opacity="0.8">
        <path id="Tracé_527" data-name="Tracé 527" d="M254.043,328.064c1.7,1.334,4.336,7.187,5.806,9.595.5.956.9,1.679,1.24,2.2a10.442,10.442,0,0,0-1.24-2.2l-1.333-2.606c.962,1.131,1.893,2.217,2.6,2.984l.908,1.983c1.356,2.951,2.5,5.872,3.9,8.767.519,1.043,1.451,3.411,2.034,4.419-.851-2.234-1.764-4.4-2.652-6.579s-1.793-4.359-2.718-6.531c.068.111.139.22.214.325,1.064,2.248,2.1,4.5,3.137,6.76a12.066,12.066,0,0,0,.536,1.169l-.536-1.169c-.407-1.022-.69-2.06-1.1-3.187-.293-.681-.756-1.41-1.051-2.092a10.12,10.12,0,0,0-.983-1.481l-.479-1.006a2.789,2.789,0,0,0-.089-.334.058.058,0,0,0,.017.009c1.2.51,5.737,8.8,6.119,10.31.338,1.2.063,2.531.445,3.884.125.455.443.767.394,1.167-.095.069-.119.267-.143.466.23.909.906,1.708.764,2.509,0,.5,2.092,1.537,1.786,1.74-1.121.655-.3.167.035,1.4.05.152-.375.72-.278,1.013.424,1,.049,1.356-.042,2.547a5.4,5.4,0,0,0-.074.539l-4.026-.342c.374-1.184-.078-1.712.863-2.845.113-.16,1.083-2.275,1.083-2.275.275-1.76,1.129-2.68.621-4.231,1.115-1.364.793-3.646,1.4-5.254s.219-2.453.156-4.047c.048-.435.2-.724.113-1.014s.557-.724.609-1.157l-.352,0,.072-.58c.017-.146-.1-.146-.218-.148-.234,0-.469,0-.55-.3a12.824,12.824,0,0,1,.174-1.9c.365-.535.742-1.057,1.147-1.555a1.272,1.272,0,0,0,.461-.006l.419-.422c.351.013.682.171.917.179.893.322,2.01-.06,2.763.405.213.153-.054,1.137.215,1.713.095.145.468.018.819.034-.2.556.135.709.5.583l-.038.28.468.019c-.1,1.541.147,3.352-.691,4.591a5.929,5.929,0,0,1-.8.97c-.13.139-.058.558-.071.7a2.659,2.659,0,0,1-1.051,0c0,1.125-.072,3.5-1.2,3.109-.178.848-.767.866-1.054,1.725-.408,1.13-.844,2.588-1.245,4.034a21.261,21.261,0,0,0-.6,2.33l-.2.837c-.413,1.739-.675,3.367-.891,4.932l-2.441,17.714-1.262-18.029a32.945,32.945,0,0,0-.838-5.022c-.387-1.681-.815-3.424-1.181-5.43a50,50,0,0,0-2.549-8.533,70.983,70.983,0,0,0-3.451-7.551c-2.394-4.51-4.671-7.881-5.358-9.174Z" transform="translate(-253.987 -328.064)" fill="#fff"/>
      </g>
    </g>
  </g>
</svg>
