<svg xmlns="http://www.w3.org/2000/svg" width="110.682" height="224.462" viewBox="0 0 110.682 224.462">
  <g id="Groupe_202" data-name="Groupe 202" transform="translate(-277.374 -74.957) rotate(-8)">
    <g id="Groupe_198" data-name="Groupe 198" transform="translate(262.571 124.72)">
      <g id="Groupe_197" data-name="Groupe 197" transform="translate(0)" opacity="0.8">
        <path id="Tracé_526" data-name="Tracé 526" d="M266.245,306.169c.455-1.627.9-4.232,1.559-7.324.646-3.095,1.47-6.684,2.464-10.315a145.782,145.782,0,0,1,6.586-19.036c1.387-3.4,2.547-5.941,3.484-7.816.806-1.57-.971,2.1-3.484,7.816-1.05,2.585-2.235,5.665-3.48,9.346,1.952-4.464,4.06-8.616,5.667-11.534.892-2.255,1.859-4.507,2.863-6.788,4.429-10.03,9.159-19.519,14.224-29.137,1.862-3.475,5.588-11.239,7.266-14.737-3.161,7.427-6.841,14.507-10.368,21.655-3.546,7.135-7.026,14.291-10.183,21.585l.59-1.144c3.476-7.6,7.277-15.047,11.131-22.491.632-1.276,1.288-2.557,2-3.861l-2,3.861c-1.649,3.34-3.108,6.647-4.812,10.316-1.1,2.242-2.489,4.74-3.541,7.006-.881,1.838-1.854,3.456-2.778,5.169l-1.531,3.415c-.117.346-.246.714-.391,1.087a.334.334,0,0,1,.033-.04c1.077-1.238,5.019-8.926,9.317-16.739,4.272-7.818,8.679-15.942,9.7-18.395,1.682-3.871,2.509-7.736,4.182-12.186a23.548,23.548,0,0,0,1.45-3.93,4.306,4.306,0,0,1,.087-1.41c.438-1.555.955-3.112,1.276-4.691a9.959,9.959,0,0,0,.024-4.63,5.313,5.313,0,0,1-.131-.935c-.049-.377-.105-.8-.165-1.258a10.306,10.306,0,0,0-.394-1.488l-.3-.784c-.13-.248-.266-.5-.408-.744a8.53,8.53,0,0,0-.968-1.332,11.281,11.281,0,0,0-1-.959c-.624-.481-1.109-.732-1.267-.692-1.126.43-1.225.509-1.73.269-.244-.1-.579-.279-1.171-.493a10.462,10.462,0,0,0-2.546-.437,5.679,5.679,0,0,0-1.5.281l-.482.116c-.168.037-.228.067-.348.094a1.93,1.93,0,0,1-.594.069c-.7-.21-1.075-.248-1.593-.376a1.765,1.765,0,0,1-.756-.39,1.483,1.483,0,0,1-.417-1.024,2.816,2.816,0,0,1,.042-.944l.115-.414c.044-.14.128-.333.189-.486l.1-.236.135-.271.264-.516.557-.965a35.123,35.123,0,0,0,2.49-4.671c.125-.263,1.143-1.993,2.235-3.622s2.19-3.173,2.19-3.173c3.942-4.39,5.936-7.589,9.924-10.174,3.051-4.492,8.945-8.689,12.986-12.7s6.336-5.065,10.482-7.908a23.878,23.878,0,0,1,2.642-2.029c.76-.4,1.884-2.17,3.025-3.03l.007.546,1.521-1.145c.382-.286.382-.1.384.08,0,.365.006.728.769.341q2.474-1.679,4.964-3.541,2.135-2.224,4.179-4.431a1.341,1.341,0,0,1,.067-.749l1.17-1.368c.011-.546-.367-.818-.359-1.184-.751-.907.468-3.369-.67-3.825-.385-.093-3.135,2.023-4.684,2.6-.387.1.014-.731.025-1.279-1.568,1.3-1.948,1.036-1.546.207l-.781.563.012-.733c-4.3,2.917-9.339,5.931-12.786,9.664-.769.767-1.91,2.2-2.667,3.154a13.67,13.67,0,0,1-1.906,1.475c-.372.847.019,1.1.032,1.647-3.049,2.171-9.444,7.142-8.237,8.069-2.229,2.011-2.187,2.927-4.381,5.145-2.888,2.959-6.544,6.723-10.063,10.532-1.874,2.13-3.734,4.128-5.55,6.213-.672.782-1.32,1.549-1.929,2.286-1.647,2-3.209,3.978-4.663,5.986a44.823,44.823,0,0,0-3.914,6.316,17.9,17.9,0,0,0-.815,1.914c-.12.387-.255.771-.365,1.16-.081.392-.178.784-.246,1.176a6.739,6.739,0,0,0,.762,4.5,6.549,6.549,0,0,0,3.719,2.578,11.985,11.985,0,0,0,2.347.394l.6.05c.2.018.344.006.519.01l1.006-.006a19.991,19.991,0,0,1,2.894.105,7.712,7.712,0,0,1,2.412.611,3.166,3.166,0,0,1,1.413,1.153,4.491,4.491,0,0,1,.615,2.013,12.051,12.051,0,0,1-.09,2.822,27.84,27.84,0,0,1-.6,3.142c-.524,2.155-1.223,4.4-2.01,6.708-1.6,4.668-3.6,9.329-5.687,13.936s-4.285,9.17-6.435,13.661c-4.313,8.977-8.441,17.689-11.779,25.758a185.153,185.153,0,0,0-7.607,21.553,100.4,100.4,0,0,0-2.857,13.345C266.049,304.159,266.154,305.168,266.245,306.169Z" transform="translate(-265.972 -124.72)" fill="#fff"/>
      </g>
    </g>
    <g id="Groupe_200" data-name="Groupe 200" transform="translate(253.987 270.364)">
      <g id="Groupe_199" data-name="Groupe 199" opacity="0.8">
        <path id="Tracé_527" data-name="Tracé 527" d="M284.728,328.064c-2.107,1.651-5.367,8.9-7.187,11.876-.618,1.183-1.112,2.078-1.535,2.728-.355.549.336-.775,1.535-2.728l1.65-3.226c-1.19,1.4-2.344,2.745-3.218,3.694l-1.124,2.455c-1.678,3.653-3.094,7.268-4.832,10.852-.642,1.291-1.8,4.222-2.518,5.47,1.054-2.765,2.183-5.441,3.283-8.143s2.22-5.4,3.364-8.084c-.085.138-.173.272-.265.4-1.316,2.783-2.6,5.576-3.883,8.368a14.936,14.936,0,0,1-.663,1.447l.663-1.447c.5-1.266.854-2.55,1.364-3.945.362-.843.936-1.745,1.3-2.589a12.528,12.528,0,0,1,1.217-1.834l.592-1.245a3.448,3.448,0,0,1,.11-.413.072.072,0,0,1-.021.011c-1.485.632-7.1,10.9-7.574,12.761-.418,1.491-.078,3.133-.551,4.808-.155.563-.548.95-.488,1.445.117.085.147.331.177.577-.285,1.125-1.121,2.114-.945,3.106-.005.622-2.59,1.9-2.21,2.154,1.387.811.369.207-.044,1.738-.062.188.464.892.344,1.253-.524,1.233-.061,1.678.052,3.152a6.67,6.67,0,0,1,.091.668l4.983-.423c-.463-1.465.1-2.119-1.068-3.522-.14-.2-1.341-2.816-1.341-2.816-.341-2.178-1.4-3.318-.769-5.237-1.38-1.688-.982-4.513-1.731-6.5s-.271-3.037-.193-5.009c-.059-.538-.246-.9-.14-1.255s-.69-.9-.754-1.432l.435,0c-.022-.18-.067-.539-.089-.718s.124-.181.269-.183c.29,0,.581,0,.68-.366a15.879,15.879,0,0,0-.216-2.347c-.452-.663-.918-1.308-1.42-1.925a1.572,1.572,0,0,1-.571-.008l-.519-.522c-.435.016-.844.211-1.135.221-1.105.4-2.488-.074-3.42.5-.264.189.067,1.407-.266,2.121-.117.18-.579.022-1.013.042.249.688-.168.878-.622.721l.047.346-.579.023c.122,1.907-.182,4.148.856,5.683a7.339,7.339,0,0,0,.995,1.2c.161.172.072.69.087.863a3.291,3.291,0,0,0,1.3,0c0,1.393.089,4.332,1.491,3.848.22,1.05.95,1.071,1.3,2.135.5,1.4,1.045,3.2,1.541,4.993a26.319,26.319,0,0,1,.741,2.884l.249,1.036c.511,2.153.836,4.168,1.1,6.1l3.021,21.926,1.562-22.316a40.771,40.771,0,0,1,1.037-6.216c.478-2.081,1.009-4.239,1.462-6.721a61.889,61.889,0,0,1,3.155-10.562,87.848,87.848,0,0,1,4.272-9.347c2.964-5.582,5.782-9.755,6.632-11.355Z" transform="translate(-253.987 -328.064)" fill="#fff"/>
      </g>
    </g>
  </g>
</svg>
