<svg id="Groupe_196" data-name="Groupe 196" xmlns="http://www.w3.org/2000/svg" width="38.285" height="34.597" viewBox="0 0 38.285 34.597">
  <path id="Tracé_398" data-name="Tracé 398" d="M1112.325,396.221c-.056.044.052.108.061.131C1112.446,396.247,1112.3,396.2,1112.325,396.221Z" transform="translate(-1112.309 -364.089)"/>
  <path id="Tracé_399" data-name="Tracé 399" d="M1116.184,388.8l.027-.209-.05.16Z" transform="translate(-1115.557 -357.66)"/>
  <path id="Tracé_400" data-name="Tracé 400" d="M1117.854,384.891l-.056-.009.063.179c.141-.191.269-.492.425-.574C1118.063,384.419,1118.041,384.8,1117.854,384.891Z" transform="translate(-1116.937 -354.193)"/>
  <path id="Tracé_401" data-name="Tracé 401" d="M1124.806,383.589l.031,0,.079-.078C1124.833,383.478,1124.951,383.368,1124.806,383.589Z" transform="translate(-1122.845 -353.329)"/>
  <path id="Tracé_402" data-name="Tracé 402" d="M1124.906,384.29c-.074.088.1-.008,0,0Z" transform="translate(-1122.914 -354.033)"/>
  <path id="Tracé_403" data-name="Tracé 403" d="M1126.787,381.8c.057.011.158-.077.148-.018.08-.138.023-.148-.1-.14Z" transform="translate(-1124.515 -351.803)"/>
  <path id="Tracé_404" data-name="Tracé 404" d="M1126.89,380.335l-.032.077C1126.881,380.416,1126.9,380.406,1126.89,380.335Z" transform="translate(-1124.575 -350.7)"/>
  <path id="Tracé_405" data-name="Tracé 405" d="M1126.447,380.819c-.035-.052-.015.012-.033.092l.069-.163C1126.444,380.741,1126.393,380.7,1126.447,380.819Z" transform="translate(-1124.201 -351.036)"/>
  <path id="Tracé_406" data-name="Tracé 406" d="M1124.535,381.7c-.178.23-.044.3.135.071C1124.578,381.8,1124.481,381.862,1124.535,381.7Z" transform="translate(-1122.546 -351.854)"/>
  <path id="Tracé_407" data-name="Tracé 407" d="M1119.407,383.326l-.122.041-.016.12C1119.277,383.427,1119.459,383.366,1119.407,383.326Z" transform="translate(-1118.177 -353.221)"/>
  <path id="Tracé_408" data-name="Tracé 408" d="M1130.469,377.481c.062-.02.158-.078.21-.037-.025-.038-.12-.046-.169-.078Z" transform="translate(-1127.62 -348.196)"/>
  <path id="Tracé_409" data-name="Tracé 409" d="M1130.583,376.44l.062-.172C1130.534,376.368,1130.541,376.413,1130.583,376.44Z" transform="translate(-1127.692 -347.271)"/>
  <path id="Tracé_410" data-name="Tracé 410" d="M1125.633,379.285l.112-.346-.036.039Z" transform="translate(-1123.542 -349.522)"/>
  <path id="Tracé_411" data-name="Tracé 411" d="M1134.677,374.651l.007-.229-.014.09Z" transform="translate(-1131.161 -345.715)"/>
  <path id="Tracé_412" data-name="Tracé 412" d="M1136.469,371.915c.011.11.169.033.154.123a.685.685,0,0,0,.1-.323A.364.364,0,0,1,1136.469,371.915Z" transform="translate(-1132.678 -343.432)"/>
  <path id="Tracé_413" data-name="Tracé 413" d="M1132.5,374.827a.2.2,0,0,0,.182-.005l-.135-.041Z" transform="translate(-1129.33 -346.017)"/>
  <path id="Tracé_414" data-name="Tracé 414" d="M1132.771,374.262h0l.1-.1Z" transform="translate(-1129.561 -345.499)"/>
  <path id="Tracé_415" data-name="Tracé 415" d="M1127.914,376.03c.012.11.135.071.106.25C1128.039,376.161,1128.129,375.962,1127.914,376.03Z" transform="translate(-1125.466 -347.058)"/>
  <path id="Tracé_416" data-name="Tracé 416" d="M1130.5,375.016l.071-.2-.145.107C1130.453,374.946,1130.51,374.957,1130.5,375.016Z" transform="translate(-1127.584 -346.049)"/>
  <path id="Tracé_417" data-name="Tracé 417" d="M1131.381,374.247l-.033.09.054-.04Z" transform="translate(-1128.361 -345.567)"/>
  <path id="Tracé_418" data-name="Tracé 418" d="M1135.857,370.23a.489.489,0,0,1,.13-.23,1.3,1.3,0,0,0-.24.192C1135.765,370.23,1135.784,370.311,1135.857,370.23Z" transform="translate(-1132.07 -341.986)"/>
  <path id="Tracé_419" data-name="Tracé 419" d="M1141.349,365.81l.013.018.014-.012Z" transform="translate(-1136.793 -338.453)"/>
  <path id="Tracé_420" data-name="Tracé 420" d="M1135.032,371.277a.92.92,0,0,1,.112-.145c-.008-.017-.016-.026-.028,0A.155.155,0,0,0,1135.032,371.277Z" transform="translate(-1131.467 -342.926)"/>
  <path id="Tracé_421" data-name="Tracé 421" d="M1138.326,369.218c.055,0,.155-.012.142-.044A.716.716,0,0,0,1138.326,369.218Z" transform="translate(-1134.244 -341.29)"/>
  <path id="Tracé_422" data-name="Tracé 422" d="M1134.9,372.952l0,.012C1134.937,372.965,1134.925,372.958,1134.9,372.952Z" transform="translate(-1131.355 -344.475)"/>
  <path id="Tracé_423" data-name="Tracé 423" d="M1134.7,372.276a.434.434,0,0,0,.016-.126.546.546,0,0,0-.059.12Z" transform="translate(-1131.149 -343.799)"/>
  <path id="Tracé_424" data-name="Tracé 424" d="M1138.415,360.906c-.088,0-.383.166-.35-.012.126-.2.166-.1.29-.139-.17-.036.066-.356-.118-.473l-.1.2c-.026-.021-.009-.11-.071-.092.071.092,0,.309-.211.341-.062.181.286.374.541.422C1138.369,361.11,1138.337,361.077,1138.415,360.906Z" transform="translate(-1133.844 -333.794)"/>
  <path id="Tracé_425" data-name="Tracé 425" d="M1139.538,366.158l.006-.029-.042.06a.632.632,0,0,1,.289-.062c.046-.124.034-.172.013-.2Z" transform="translate(-1135.235 -338.549)"/>
  <path id="Tracé_426" data-name="Tracé 426" d="M1136.869,367.394c-.051-.13.038-.288-.135-.311-.145.155-.03.18-.081.308.217-.266-.019.12.2-.006a.832.832,0,0,1-.105.155,1.214,1.214,0,0,1,.164-.085h-.012v0c-.022,0-.031,0-.014-.009l0-.007-.023-.045c.088-.052.034.012.023.045l.01.016h0l.2-.288A1,1,0,0,0,1136.869,367.394Z" transform="translate(-1132.833 -339.527)"/>
  <path id="Tracé_427" data-name="Tracé 427" d="M1127.726,373.761c0,.03.017.08-.05.129-.076.024-.043-.042-.075-.069-.01.058-.055.185.1.118l0-.029c.128-.069.364-.085.359-.056A.874.874,0,0,0,1127.726,373.761Z" transform="translate(-1125.19 -345.157)"/>
  <path id="Tracé_428" data-name="Tracé 428" d="M1132.945,369.705c-.132.1-.05.13-.028.179l.156-.248-.179.027Z" transform="translate(-1129.646 -341.68)"/>
  <path id="Tracé_429" data-name="Tracé 429" d="M1141.947,365.3l.066.121-.013-.248Z" transform="translate(-1137.297 -337.919)"/>
  <path id="Tracé_430" data-name="Tracé 430" d="M1143.64,364.23l.021-.118-.093.025Z" transform="translate(-1138.665 -337.022)"/>
  <path id="Tracé_431" data-name="Tracé 431" d="M1186.789,324.807l-.109-.074a.28.28,0,0,1-.17.117C1186.672,324.855,1186.883,324.9,1186.789,324.807Z" transform="translate(-1174.867 -303.822)"/>
  <path id="Tracé_432" data-name="Tracé 432" d="M1214.5,297.038l-.052-.009c0,.052,0,.1.006.147Z" transform="translate(-1198.422 -280.464)"/>
  <path id="Tracé_433" data-name="Tracé 433" d="M1258.684,259.7l.015-.162C1258.568,259.623,1258.66,259.642,1258.684,259.7Z" transform="translate(-1235.672 -248.857)"/>
  <path id="Tracé_434" data-name="Tracé 434" d="M1160.878,346.839a.75.75,0,0,0,.244-.121C1160.98,346.75,1160.831,346.739,1160.878,346.839Z" transform="translate(-1153.25 -322.357)"/>
  <path id="Tracé_435" data-name="Tracé 435" d="M1162.705,345.407l-.061.016a.676.676,0,0,1-.162.19C1162.588,345.59,1162.689,345.542,1162.705,345.407Z" transform="translate(-1154.61 -321.252)"/>
  <path id="Tracé_436" data-name="Tracé 436" d="M1149.857,358.4l-.058.039C1149.807,358.457,1149.822,358.46,1149.857,358.4Z" transform="translate(-1143.917 -332.203)"/>
  <path id="Tracé_437" data-name="Tracé 437" d="M1150.481,357.5l.074-.081a.467.467,0,0,1-.1.079A.034.034,0,0,1,1150.481,357.5Z" transform="translate(-1144.469 -331.377)"/>
  <path id="Tracé_438" data-name="Tracé 438" d="M1291.215,244.286l.021,0C1291.28,244.2,1291.253,244.228,1291.215,244.286Z" transform="translate(-1263.145 -235.952)"/>
  <path id="Tracé_439" data-name="Tracé 439" d="M1191.294,310.675l0,.01.012,0Z" transform="translate(-1178.899 -291.969)"/>
  <path id="Tracé_440" data-name="Tracé 440" d="M1191.524,309.083c0,.2-.063.225-.157.256l.3.227Z" transform="translate(-1178.963 -290.627)"/>
  <path id="Tracé_441" data-name="Tracé 441" d="M1176.977,197.1l-.113.089c.08-.277-.436-.333-.526-.6-.087.313-.655-.1-.82.365-.093-.02.021-.109-.043-.151-.029.146-.114.212-.314.245l.008-.036a7.36,7.36,0,0,1-1.342.441l.1.1a.448.448,0,0,1-.242.011c-.045.256.339-.154.315.116-.28-.176-.839.409-1.086.175-.184.089.124.117-.059.206l-.087-.054,0,.123a.234.234,0,0,1-.274-.088c.033-.007.074-.059.1-.08-.2-.014-.424.248-.492.245l.2-.039a9,9,0,0,0-1.519.929l.066.039c-.307.3-.324.09-.7.349l.007-.021a.522.522,0,0,1-.254.236c.065-.12-.259-.032-.166-.176-.333.322-.147.193-.293.543l-.111-.064a.406.406,0,0,1-.211.312c.119-.168-.205-.078-.081-.283-.533.009-.5.546-.857.346-.045.369.436-.054.361.062.135.036-.048.284-.192.33-.135.068-.408-.211-.737-.02.034-.017.025-.038.058-.056-.161,0-.193.227-.405.2,0,.206-.2.1-.114.317l.277-.217c-.143.149-.171.475-.518.52a.533.533,0,0,1,.094-.216c-.117-.013-.137.129-.258.116-.09-.215.344-.251.442-.508-.137-.035-.267.342-.3.072.024.352-.347.148-.45.485l-.054-.128c-.025.039-.066.137-.133.17l.029-.222c-.105.235-.419.079-.548.255.358-.217.164.1.368.1-.352.421-.437-.163-.9.19.057-.057.295-.079.222.04a.742.742,0,0,1-.356.032c-.315.221.123.093.026.249-.2-.079-.127.155-.243.287l-.073-.12c-.421.145.051.311-.342.418l.042-.252-.15.148-.046-.159c-.13.216-.205.225-.417.3.095.059.108.233-.055.336-.157,0-.006-.152-.231.005.007-.107.008-.236.178-.186-.013-.046.006-.107-.006-.152-.172-.01-.318.164-.4.216a.232.232,0,0,1,.11-.027l-.236.375c-.08-.012-.061-.074-.041-.136-.06.056-.073.141-.167.214-.034-.114-.1-.21.011-.346l-.254.31c-.047-.029-.237-.012-.217-.075-.214.055-.318.463-.6.537a.169.169,0,0,1-.055.105c-.235.118-.507.123-.685.421l-.26-.079c-.18.169.342.091.042.371-.206.208-.186-.09-.3-.083-.062.166-.153.479-.463.486.051-.081.125-.093.184-.151l-.229.016c.1-.291.28-.335.036-.364.194.348-.627.467-.432.813l-.156,0c.034-.018.026-.041.059-.058-.319-.015,0,.345-.306.481-.113.039-.212.036-.173-.047l-.159.224c-.067.035-.09-.032-.024-.067l-.308.243,0-.011a1.623,1.623,0,0,1-.091.3c-.115.008.018-.062-.031-.089l-.126.2c-.132-.036-.039-.218.094-.289-.392-.214-.095.179-.583.242l.139-.159c-.236-.109-.32.05-.59.069.087.028.581.023.444.24a.275.275,0,0,0-.209.191c-.081-.115-.163-.015-.285.081l-.1-.159c-.107.141-.041.211-.073.337a.272.272,0,0,1-.314-.029c-.04-.1-.1-.186-.224-.176a.087.087,0,0,1,.026-.063c-.135-.069-.361-.285-.515-.268.3-.4-.72-.521-.371-.8l-.284-.316.042-.02a.454.454,0,0,0-.436-.241c-.016-.067.045-.059.067-.069-.182-.363-.222-.382-.605-.5l.09-.118c-.122-.016-.189-.587-.567-.78a.1.1,0,0,1,.077-.008c-.407-.23-.361-1.064-.87-.847l-.286-.137c.209.311-.211.1-.179.278-.118-.092-.123-.392.014-.272l0,.039c.253-.126-.225-.417-.075-.53-.484-.552-.829-1.2-1.274-1.726l-.11.2-.148-.189c0-.08.071-.173.177-.038.033-.147-.265-.151-.3-.124-.154-.31.274-.064.211-.145l-.1-.1,0,.04c-.14-.029-.217.024-.344-.138-.053-.126.056-.137.028-.181.012-.01.006-.027-.047-.064l-.184-.241-.048.2c-.151-.047-.18-.221-.232.01.09-.35-.661-.921-.678-1.073a.9.9,0,0,1-.479-.38.115.115,0,0,1-.222.054c.341-.206-.114-.384-.01-.691-.044.231-.408-.39-.457-.046-.086-.145.1-.105.088-.26-.372-.194-.506-.711-.872-1.036-.043.029-.046.142-.173.116l.017-.362c-.083-.054-.279.134-.265-.116-.015.047-.038.119-.094.082-.454-.877-1.464-1.295-1.783-2.321.017.164-.05.107-.121.036.027.064-.094.086-.136.142l-.135-.428c-.191.078-.306-.308-.469-.212l.112.071c-.275.025-.19.506-.411.68.311-.031.074.618.547.6.005.089-.106.019-.128.09.142-.024.225.029.307.195l-.035.005a5.322,5.322,0,0,1,.741,1.043l.074-.124a.4.4,0,0,1,.064.214c.247-.04-.218-.257.036-.321-.1.308.567.629.4.924.123.138.082-.148.2-.01l-.031.095.114-.041a.224.224,0,0,1-.022.273c-.013-.027-.071-.048-.1-.067.03.184.323.3.335.366l-.08-.167c.4.318.729.847,1.182,1.1l.024-.071c.337.2.144.27.457.538h-.021a.44.44,0,0,1,.269.166c-.126-.026.018.243-.135.2.365.215.209.082.567.12l-.04.118a.367.367,0,0,1,.334.109c-.181-.064-.037.206-.254.147.107.475.6.32.467.7.354-.049-.117-.389,0-.348.013-.134.275-.025.34.1.084.108-.137.428.092.684-.021-.027-.04-.014-.061-.04.026.147.243.123.253.323.195-.052.126.162.318.03l-.247-.2c.163.1.477.046.571.354a.5.5,0,0,1-.22-.036c0,.11.143.1.148.209-.192.132-.289-.257-.548-.286-.014.134.364.164.111.255.332-.1.191.282.528.3l-.115.079c.041.014.14.029.182.082l-.217.024c.24.043.136.361.316.445-.247-.286.072-.174.045-.361.443.235-.1.44.285.8-.061-.041-.108-.257.012-.214a.647.647,0,0,1,.07.323c.245.245.074-.133.234-.075-.053.2.162.085.3.166l-.107.092c.185.359.292-.11.438.232l-.246.011.158.109-.147.074c.221.077.238.145.331.324a.2.2,0,0,1,.329-.014c.013.145-.146.035.029.211-.1.014-.228.038-.2-.128-.042.021-.1.015-.146.035.009.16.191.26.25.328a.2.2,0,0,1-.037-.1l.379.151c0,.077-.066.07-.126.062.058.046.14.044.217.118-.106.052-.193.132-.33.05l.315.182c-.024.049.006.222-.054.215.068.189.467.217.558.467a.15.15,0,0,1,.105.033c.13.2.154.449.454.566l-.058.252c.175.14.064-.329.356-.1.215.158-.074.185-.062.291.161.035.464.076.483.367-.079-.037-.094-.1-.152-.152l.025.213c-.282-.052-.331-.216-.349.017.324-.23.471.522.8.293l.01.145c-.018-.029-.04-.019-.058-.048,0,.3.331-.045.475.223.042.1.042.193-.039.167l.222.12c.036.057-.028.087-.064.03l.246.256-.011.005a.88.88,0,0,1,.1.011.372.372,0,0,0,.021.128.379.379,0,0,0-.046.14v0c.074.2-.517,0-.582.343-.081-.006-.043-.11-.1-.157a1.934,1.934,0,0,0-.279.6l-.268.046c.227.006.142.276.065.5a1.829,1.829,0,0,0,.215.033l-.194.27c-.049,0-.062-.072-.067-.166l-.02.071c-.132.012-.15-.109-.147-.241l.161.024a.551.551,0,0,0-.1-.361.223.223,0,0,1-.054.1c0-.037-.008-.067-.026-.076s-.022.044-.036.113l-.182-.124.035.077-.413.145a2.509,2.509,0,0,1-.458,1.1c0-.193-.132-.214-.237-.361.217.072.244-.284.463-.4-.115.06-.144-.025-.136-.069l-.245.4c-.083-.124-.141-.031-.268-.009.246.179-.138.356-.223.537-.069-.071-.1-.177.089-.292-.323-.026-.033.463-.332.46.04-.035.072-.04.058-.093-.044.145-.324.278-.321.166l.04-.034c-.3.19-.844.66-.73.887a2.013,2.013,0,0,1-.165-.315l.029,1.039c-.09-.2-.576-.465-.422-.739a.423.423,0,0,0-.279.234c.063-.013.3.15.256.214-.314-.048-.194,0-.525.007.095-.019.232.3.122.379-.015-.052-.217-.249-.2-.308l-.052.469c.027-.1-.165-.225-.282-.248.068.027-.229.182-.277.264l.158-.032c-.325.2.005.6-.3.822-.008-.081-.18-.393-.355-.3a2.176,2.176,0,0,1,.048,1.178l-.111-.033-.124.247a5.715,5.715,0,0,1,.013-1.3c-.159.033-.1-.061-.262.081-.116-.021,0-.179.047-.223l-.421.273c.143.135-.165.394-.043.508l.282-.5a.651.651,0,0,1-.169.827c-.118,0-.177-.31-.224-.355.009.081-.168.318-.224.3l.044-.178c-.2.073-.071.408-.371.421-.069.044-.349-.031-.283.066a1.858,1.858,0,0,1,.764.774,2.634,2.634,0,0,1-.6.094c-.216-.044-.125-.447-.309-.486a.271.271,0,0,1,.01.178c-.094.022-.083-.148-.207-.008.108.17-.3.235.045.184-.1.162-.172.1-.327.242.136.052.146.453.048.614a.232.232,0,0,0-.135-.077c-.293.228-.494.3-.752.532-.056-.014-.218.056-.223-.056a.336.336,0,0,1-.077.216c-.268.013.157-.181-.1-.227.068.095-.1.3-.159.461.155.1.281-.212.345-.369a.8.8,0,0,1-.042.879c-.169.238-.2-.033-.212.026-.425.333-.044.625-.493.8-.238.005-.22-.223-.326-.279.131-.2.332-.17.444-.281l-.194.077a.362.362,0,0,1,.2-.247c-.2,0-.693.591-1.079.788-.017.09-.071.218.016.222l.079-.107c.174.008-.057.3.1.226a.825.825,0,0,1-.337.546l-.157-.1c.04.034.19-.036.2-.123-.019.129-.441.09-.36.337l.211-.032c-.064.188-.089.476-.285.588.195.057.022-.05.278-.009-.276-.091.41-.381.066-.425.281.062.269-.119.56-.116-.045-.038-.131-.03.021-.137a.243.243,0,0,1-.007-.066l.012-.006-.012,0c0-.012,0-.014,0,0a.22.22,0,0,1-.129,0c-.028-.162.185-.362.208-.482.1-.056.014.081.1.085l.034-.179c.1.086.363-.037.226.192l.174-.152a.538.538,0,0,0,.355-.262c.1-.053.1-.292.1-.153l.211-.3.025.022c.274-.229.4-.659.856-.76a.874.874,0,0,1,.3-.329l.1.058c.087-.135.424-.221.395-.354.328.119.608-.442.849-.58l-.09-.118a2.04,2.04,0,0,0,.39-.464l-.1-.09c.081-.213.449-.268.679-.487.016.052-.053.1-.115.11.474-.026.474-.676.875-.733a.192.192,0,0,1,.161-.131l-.012.019.028-.021.136-.022a.385.385,0,0,0-.122.01,1.02,1.02,0,0,0,.17-.208l.122.082.015-.018c.107-.021.017-.1-.09-.149a.473.473,0,0,0,.046-.148c.2.125.15-.223.386-.1-.024-.133.324-.383.207-.609.023.023.055.016.015.052.1-.048.2-.1.236-.213l.148.11.035-.337c.183,0,.27.008.243.2.141-.38.172-.236.274-.584l.061.1c.08-.069.117-.295.227-.259.322.026.941-.7,1.544-.914-.3-.2.316-.052.176-.274.077.043.172.029.136.143.2-.248.45-.176.488-.481.077.043.018.134.072.153.009-.029.037-.115.091-.1s0,.081-.014.138c.245-.2.122-.417,0-.618.2-.008.25-.068.252-.26.09.028.213.036.071.176.1-.057.609-.314.507-.471.056.017.133-.081.143-.116a3.091,3.091,0,0,0,.419-.3l-.072.016a.208.208,0,0,1,0-.12.525.525,0,0,1,.022.1,1.356,1.356,0,0,0,.023-.153,1,1,0,0,0,.235-.126l.009.022c.042-.012.072-.022.1-.033.016.008.022.019.043.025-.11.088-.014.155.079.26l-.152.108c.136.086.2.018.324.036.089.144,0,.261-.074.368.143.231.068-.29.292-.06.082.221.24.3.494.442.046.163-.107.048-.115.126l.2.019c.018.029-.025.048-.047.058.118.057.153-.107.308.008.195-.087-.005.484.318.524-.008.077-.107.048-.154.106a1.705,1.705,0,0,0,.572.226l.036.249c.013-.214.27-.15.489-.089a1.713,1.713,0,0,0,.039-.205l.255.169c0,.046-.072.062-.163.072l.068.015c.008.124-.11.147-.238.151l.028-.153a.584.584,0,0,0-.352.114.2.2,0,0,1,.1.045c-.036,0-.065.011-.075.029s.041.019.108.027l-.126.178.075-.038.125.379a2.186,2.186,0,0,1,1.048.379c-.186.006-.213.131-.361.236.084-.209-.266-.215-.369-.416.054.1-.03.136-.072.131l.379.21c-.123.082-.038.134-.026.254.187-.238.332.12.5.2-.073.067-.176.1-.274-.076-.047.306.442.019.42.3-.031-.037-.034-.067-.085-.052.137.038.245.3.138.3l-.03-.037c.162.276.577.78.806.671a2.231,2.231,0,0,1-.318.159l1.013-.039c-.2.086-.5.541-.751.4a.362.362,0,0,0,.2.26c-.006-.06.173-.287.23-.241-.078.3-.023.185-.046.5-.009-.09.312-.218.375-.112-.052.014-.26.2-.315.187l.444.054c-.092-.027-.233.153-.268.263.033-.064.15.217.224.264l-.014-.15c.162.308.574,0,.761.292-.079.006-.4.161-.33.327.183-.034.864-.187,1.147-.016l-.044.1.225.125a6.137,6.137,0,0,1-1.26-.048c.014.149-.071.1.049.246-.033.108-.173-.005-.21-.048l.216.4c.148-.131.361.164.483.055l-.451-.278a.6.6,0,0,1,.776.185c-.017.112-.32.153-.369.2.079-.006.279.172.257.224l-.163-.05c.042.188.379.086.349.369.032.067-.08.325.023.269a2.037,2.037,0,0,1,.849-.679,2.36,2.36,0,0,1,.007.573c-.074.2-.447.092-.511.264a.268.268,0,0,1,.172,0c.007.089-.154.07-.038.193.179-.092.183.289.183-.032.141.1.067.166.185.319.07-.124.459-.109.6-.007a.247.247,0,0,0-.094.121c.181.285.206.488.384.748-.023.051.015.209-.092.205.054.017.133.013.192.09-.036.252-.145-.163-.234.072.1-.056.273.116.411.189.123-.136-.153-.283-.29-.355a.761.761,0,0,1,.832.118c.2.181-.067.184-.013.2.243.429.593.1.677.539-.038.222-.254.182-.328.275-.17-.142-.1-.326-.19-.441l.039.189c-.082-.027-.195-.121-.2-.211-.041.192.45.7.552,1.086.081.026.191.092.212.011l-.085-.087c.044-.163.271.09.235-.07.163.084.38.156.446.384l-.125.135c.041-.033.006-.182-.074-.205.118.034-.008.424.244.379l.015-.2c.165.084.434.145.5.343.1-.174-.042-.027.05-.261-.145.246-.277-.434-.391-.118.118-.256-.056-.268.007-.541-.046.038-.056.12-.126-.037a.242.242,0,0,1-.064,0l0-.012v.012c-.012,0-.013,0,0,0a.217.217,0,0,1-.027.122c-.159.006-.3-.219-.413-.255-.032-.1.079,0,.1-.084l-.162-.054c.1-.085.03-.342.227-.19l-.115-.178a.46.46,0,0,0-.189-.359c-.033-.1-.263-.127-.129-.113l-.256-.229.025-.021c-.173-.281-.562-.435-.58-.879a.741.741,0,0,1-.262-.318l.073-.094c-.113-.095-.153-.414-.284-.4.162-.3-.344-.6-.443-.838l-.126.078a1.733,1.733,0,0,0-.393-.4l-.1.086c-.194-.088-.2-.441-.376-.671.052-.013.084.055.09.115.041-.457-.6-.47-.613-.852a.165.165,0,0,1-.111-.155l.017.012-.018-.027c0-.042-.005-.09-.008-.129a.36.36,0,0,0,0,.115.874.874,0,0,0-.184-.166l.091-.114-.016-.015c-.01-.1-.1-.019-.154.082a.433.433,0,0,0-.139-.047c.142-.192-.2-.147-.062-.368-.131.02-.338-.315-.566-.207.024-.021.021-.052.051-.014-.036-.1-.072-.2-.181-.227l.119-.14-.324-.035c.008-.171.026-.253.216-.229-.361-.131-.219-.161-.55-.254l.1-.058c-.062-.075-.278-.108-.237-.212.047-.305-.616-.88-.786-1.45-.207.291-.033-.3-.258-.158.045-.074.034-.163.145-.134-.236-.179-.158-.417-.454-.439.044-.075.131-.023.151-.075-.028-.008-.111-.03-.09-.082s.079-.008.134.007c-.187-.223-.4-.1-.6.028,0-.184-.059-.233-.244-.225.029-.087.041-.2.172-.076-.053-.087-.288-.561-.442-.456.018-.054-.075-.121-.108-.129a2.6,2.6,0,0,0-.278-.381l.014.068c-.231.067-.153-.116-.286-.242l.021-.01c-.126-.425-.172-.093-.277-.528l-.1.1c-.261.155-.082-.394-.319-.509l-.01.117c-.161-.038.1-.537.049-.663,0-.039.061.009.1.028a.534.534,0,0,0-.029-.107.474.474,0,0,0,.225.03c.04,0-.016.062-.04.1.4-.067-.066-.178.135-.372.1.052.09.244.252.153.122.014.255-.578.575-.561-.089-.032-.179-.064-.1-.182.149-.132.6-.057.617-.354a.085.085,0,0,1,.063.03c.09-.135.349-.357.352-.516.383.326.649-.716.892-.342l.372-.277.015.045a.522.522,0,0,0,.325-.426c.074-.011.055.051.063.073.414-.155.44-.193.627-.574l.109.1c.038-.124.649-.141.918-.51a.1.1,0,0,1-.005.08c.312-.4,1.178-.258,1.056-.8l.2-.272c-.372.174-.066-.227-.255-.216.123-.109.439-.076.283.048l-.04-.007c.079.272.486-.176.572-.009.682-.421,1.426-.694,2.09-1.043l-.181-.143.234-.117c.084.01.163.1,0,.184.145.057.223-.241.2-.284.361-.1,0,.287.1.236l.125-.088-.042,0c.065-.136.029-.222.23-.323.145-.032.127.08.181.059.007.013.027.01.078-.037l.3-.145-.2-.083c.087-.144.275-.144.05-.237.334.143,1.128-.5,1.3-.481a1.055,1.055,0,0,1,.532-.4c-.072,0-.193-.152.009-.233.113.383.43-.034.714.134-.224-.093.521-.327.183-.448.174-.056.077.125.24.143.308-.34.886-.342,1.337-.622-.015-.05-.13-.081-.062-.2l.365.106c.082-.069-.045-.308.205-.233-.043-.027-.108-.067-.052-.113,1.035-.243,1.823-1.114,2.98-1.124-.171-.031-.089-.079.009-.128-.075.008-.052-.116-.093-.174l.481-.009C1176.58,197.292,1177.011,197.292,1176.977,197.1Zm-25.989,2.771,0,.06C1150.89,199.88,1150.938,199.879,1150.988,199.875Zm-5.483,18.549v-.009C1145.636,218.368,1145.588,218.383,1145.5,218.423Zm9-8.828c.007-.063.074-.084.166-.086A.266.266,0,0,1,1154.509,209.595Zm4.825,1.86a.224.224,0,0,1,.078.151C1159.351,211.6,1159.333,211.542,1159.334,211.455Zm7.587,8.906h-.009C1166.891,220.232,1166.9,220.279,1166.921,220.361Zm-9.184-12.288a.213.213,0,0,1,.075-.074c.054.011.1.019.163.036C1157.916,208.078,1157.84,208.166,1157.737,208.073Zm.256-1.411c.03-.058.073-.2.155-.155C1158.185,206.677,1158.1,206.643,1157.993,206.662Zm10.222-4.937-.063-.007C1168.234,201.625,1168.224,201.673,1168.215,201.725Z" transform="translate(-1138.946 -192.976)"/>
  <path id="Tracé_442" data-name="Tracé 442" d="M1258.954,260.6l.009,0a.139.139,0,0,0-.006-.027Z" transform="translate(-1235.946 -249.726)"/>
  <path id="Tracé_443" data-name="Tracé 443" d="M1167.034,330.993a.225.225,0,0,1,.128-.015C1167.142,330.95,1167.1,330.945,1167.034,330.993Z" transform="translate(-1158.448 -309.069)"/>
  <path id="Tracé_444" data-name="Tracé 444" d="M1146.946,361.046l.1-.145a.217.217,0,0,1-.142.073C1146.927,361,1146.983,361.007,1146.946,361.046Z" transform="translate(-1141.474 -334.315)"/>
  <path id="Tracé_445" data-name="Tracé 445" d="M1136.309,364.31c-.006.03-.037.038-.042.068l.051.042C1136.391,364.342,1136.408,364.253,1136.309,364.31Z" transform="translate(-1132.508 -337.173)"/>
  <path id="Tracé_446" data-name="Tracé 446" d="M1143.26,360.234c-.092-.076-.141.028-.212.126l.015-.015C1143.154,360.489,1143.207,360.361,1143.26,360.234Z" transform="translate(-1138.226 -333.73)"/>
  <path id="Tracé_447" data-name="Tracé 447" d="M1142.525,361.321a.364.364,0,0,1-.077.079C1142.484,361.457,1142.49,361.379,1142.525,361.321Z" transform="translate(-1137.719 -334.669)"/>
  <path id="Tracé_448" data-name="Tracé 448" d="M1151.292,355.924c-.062.017.079.135.022.122C1151.372,356.2,1151.459,355.652,1151.292,355.924Z" transform="translate(-1145.162 -330.054)"/>
  <path id="Tracé_449" data-name="Tracé 449" d="M1142.322,358.657l-.1.056.133.075Z" transform="translate(-1137.53 -332.423)"/>
  <path id="Tracé_450" data-name="Tracé 450" d="M1146.126,355.315l-.165.1c.019.016.011.043,0,.072C1146.046,355.412,1146.159,355.343,1146.126,355.315Z" transform="translate(-1140.678 -329.605)"/>
  <path id="Tracé_451" data-name="Tracé 451" d="M1143.394,356.991l-.166.1.062-.017Z" transform="translate(-1138.376 -331.019)"/>
  <path id="Tracé_452" data-name="Tracé 452" d="M1156.712,345.253c-.018-.051-.081-.035-.125.032-.013.06-.057.126,0,.14Z" transform="translate(-1149.616 -321.096)"/>
  <path id="Tracé_453" data-name="Tracé 453" d="M1152.036,346.729c.063-.016.088.005.144.019l-.119-.137Z" transform="translate(-1145.803 -322.267)"/>
  <path id="Tracé_454" data-name="Tracé 454" d="M1154.236,343.5c-.019-.051.126-.312-.062-.124C1154.193,343.43,1154.067,343.6,1154.236,343.5Z" transform="translate(-1147.582 -319.485)"/>
  <path id="Tracé_455" data-name="Tracé 455" d="M1170.429,332.257l.2.219-.163-.256Z" transform="translate(-1161.31 -310.134)"/>
  <path id="Tracé_456" data-name="Tracé 456" d="M1180.438,317.548c.069-.153.156-.171-.022-.277-.238.1.072.179-.159.254C1180.257,317.616,1180.445,317.464,1180.438,317.548Z" transform="translate(-1169.596 -297.53)"/>
  <path id="Tracé_457" data-name="Tracé 457" d="M1354.32,220.092l.169-.01-.134-.048Z" transform="translate(-1316.349 -215.55)"/>
  <path id="Tracé_458" data-name="Tracé 458" d="M1355.505,218.1l.111.157.017-.2C1355.6,218.083,1355.547,218.127,1355.505,218.1Z" transform="translate(-1317.348 -213.885)"/>
  <path id="Tracé_459" data-name="Tracé 459" d="M1230.159,278.333l-.164-.015.016.045C1230.06,278.389,1230.092,278.37,1230.159,278.333Z" transform="translate(-1211.53 -264.689)"/>
  <path id="Tracé_460" data-name="Tracé 460" d="M1241.788,271.243l-.033.018.154.1Z" transform="translate(-1221.445 -258.724)"/>
  <path id="Tracé_461" data-name="Tracé 461" d="M1249.9,263.628c-.068.033-.12.114-.186.15C1249.834,263.66,1250.035,263.8,1249.9,263.628Z" transform="translate(-1228.157 -252.304)"/>
  <path id="Tracé_462" data-name="Tracé 462" d="M1320.718,411.534c.025.06.117-.024.141-.027C1320.777,411.429,1320.692,411.553,1320.718,411.534Z" transform="translate(-1288.015 -376.958)"/>
  <path id="Tracé_463" data-name="Tracé 463" d="M1314.867,406.578l.052-.011-.188-.068Z" transform="translate(-1282.972 -372.759)"/>
  <path id="Tracé_464" data-name="Tracé 464" d="M1312.468,402.115c-.138-.169-.383-.347-.415-.507-.125.192.222.288.255.478l-.025.05Z" transform="translate(-1280.69 -368.635)"/>
  <path id="Tracé_465" data-name="Tracé 465" d="M1312.483,397.185c-.051.072-.121-.06.045.119l.005-.03Z" transform="translate(-1281.026 -364.906)"/>
  <path id="Tracé_466" data-name="Tracé 466" d="M1313.121,397.6c.061.086.021-.1,0,0Z" transform="translate(-1281.614 -365.23)"/>
  <path id="Tracé_467" data-name="Tracé 467" d="M1311.348,394.619c-.111-.1-.135-.048-.157.063l.137.077C1311.352,394.709,1311.294,394.6,1311.348,394.619Z" transform="translate(-1279.987 -362.698)"/>
  <path id="Tracé_468" data-name="Tracé 468" d="M1309.918,395.123l.065.044C1309.993,395.145,1309.988,395.126,1309.918,395.123Z" transform="translate(-1278.913 -363.167)"/>
  <path id="Tracé_469" data-name="Tracé 469" d="M1310.327,395.494l-.138-.093c-.017.035-.073.073.058.046C1310.188,395.47,1310.255,395.463,1310.327,395.494Z" transform="translate(-1279.12 -363.402)"/>
  <path id="Tracé_470" data-name="Tracé 470" d="M1310.693,396.676c.167.208.27.1.1-.112C1310.8,396.654,1310.83,396.754,1310.693,396.676Z" transform="translate(-1279.567 -364.382)"/>
  <path id="Tracé_471" data-name="Tracé 471" d="M1310.866,402.04l0,.121.107.038C1310.924,402.18,1310.918,402,1310.866,402.04Z" transform="translate(-1279.713 -368.994)"/>
  <path id="Tracé_472" data-name="Tracé 472" d="M1308.137,390.3c-.042.017-.074.1-.115.143l.1.058C1308.117,390.444,1308.086,390.345,1308.137,390.3Z" transform="translate(-1277.315 -359.104)"/>
  <path id="Tracé_473" data-name="Tracé 473" d="M1307.229,390.746l-.148-.087C1307.148,390.779,1307.192,390.78,1307.229,390.746Z" transform="translate(-1276.521 -359.404)"/>
  <path id="Tracé_474" data-name="Tracé 474" d="M1308.44,395.577l.272.124-.3-.164Z" transform="translate(-1277.644 -363.517)"/>
  <path id="Tracé_475" data-name="Tracé 475" d="M1306.446,387.013l-.214-.045.081.028Z" transform="translate(-1275.805 -356.292)"/>
  <path id="Tracé_476" data-name="Tracé 476" d="M1304.618,383.668c.106.008.072-.153.153-.125a.6.6,0,0,0-.28-.148A.315.315,0,0,1,1304.618,383.668Z" transform="translate(-1274.338 -353.28)"/>
  <path id="Tracé_477" data-name="Tracé 477" d="M1306.09,388.219l.031.052a.2.2,0,0,0,.04-.17Z" transform="translate(-1275.686 -357.246)"/>
  <path id="Tracé_478" data-name="Tracé 478" d="M1305.736,388.253l0,0-.065-.113Z" transform="translate(-1275.334 -357.277)"/>
  <path id="Tracé_479" data-name="Tracé 479" d="M1306.12,392.952c.107.008.1-.113.263-.056C1306.275,392.858,1306.11,392.742,1306.12,392.952Z" transform="translate(-1275.711 -361.234)"/>
  <path id="Tracé_480" data-name="Tracé 480" d="M1305.936,390.311l-.169-.1.065.152C1305.858,390.344,1305.882,390.293,1305.936,390.311Z" transform="translate(-1275.414 -359.027)"/>
  <path id="Tracé_481" data-name="Tracé 481" d="M1305.278,389.864l.076.045-.024-.056Z" transform="translate(-1275.002 -358.724)"/>
  <path id="Tracé_482" data-name="Tracé 482" d="M1302.865,384.045a.417.417,0,0,1-.184-.159,1.107,1.107,0,0,0,.122.256C1302.843,384.132,1302.924,384.127,1302.865,384.045Z" transform="translate(-1272.812 -353.693)"/>
  <path id="Tracé_483" data-name="Tracé 483" d="M1299.594,379.36l.02-.009-.008-.015Z" transform="translate(-1270.209 -349.857)"/>
  <path id="Tracé_484" data-name="Tracé 484" d="M1303.352,385.52c-.018,0-.028.01-.011.026a.135.135,0,0,0,.121.1A.766.766,0,0,1,1303.352,385.52Z" transform="translate(-1273.361 -355.071)"/>
  <path id="Tracé_485" data-name="Tracé 485" d="M1302.36,381.929a.87.87,0,0,0,.01.139C1302.383,382.016,1302.394,381.922,1302.36,381.929Z" transform="translate(-1272.541 -352.043)"/>
  <path id="Tracé_486" data-name="Tracé 486" d="M1304.271,386.375a.4.4,0,0,0-.114-.036.471.471,0,0,0,.1.075Z" transform="translate(-1274.056 -355.762)"/>
  <path id="Tracé_487" data-name="Tracé 487" d="M1294.729,379.193c-.021.082.075.378-.087.323-.168-.144-.063-.168-.07-.288-.071.153-.325-.109-.476.047l.166.114c-.026.021-.107-.006-.1.054a.216.216,0,0,1,.279.24c.159.082.419-.213.521-.444C1294.914,379.263,1294.875,379.289,1294.729,379.193Z" transform="translate(-1265.574 -349.737)"/>
  <path id="Tracé_488" data-name="Tracé 488" d="M1299.913,379.419c-.108-.061-.157-.056-.193-.041l.168.28-.027-.009.049.047A.57.57,0,0,1,1299.913,379.419Z" transform="translate(-1270.315 -349.885)"/>
  <path id="Tracé_489" data-name="Tracé 489" d="M1300.3,381.681h0c-.006.02-.011.029-.012.011l-.006,0-.047.014c-.028-.09.019-.03.047-.014l.018-.007v0l-.232-.224a.926.926,0,0,0,.166.247c-.133.026-.267-.077-.326.079.115.157.163.056.272.123-.2-.246.108.037.044-.192a.7.7,0,0,1,.12.124,1.127,1.127,0,0,1-.041-.168Z" transform="translate(-1270.471 -351.646)"/>
  <path id="Tracé_490" data-name="Tracé 490" d="M1304.051,391.113c.027.01.08,0,.109.067,0,.074-.051.032-.084.058.052.019.161.082.136-.069l-.027-.009c-.033-.129.01-.351.037-.342A.912.912,0,0,0,1304.051,391.113Z" transform="translate(-1273.967 -359.538)"/>
  <path id="Tracé_491" data-name="Tracé 491" d="M1301.462,386.926l.051-.042c.059.139.109.068.161.055l-.194-.185Z" transform="translate(-1271.784 -356.112)"/>
  <path id="Tracé_492" data-name="Tracé 492" d="M1299.429,378.554l-.24-.022.11.067Z" transform="translate(-1269.867 -349.18)"/>
  <path id="Tracé_493" data-name="Tracé 493" d="M1298.576,376.728l.1-.054-.108-.036Z" transform="translate(-1269.347 -347.583)"/>
  <path id="Tracé_494" data-name="Tracé 494" d="M1267.63,331.684l-.082.1a.238.238,0,0,1,.1.164C1267.666,331.8,1267.728,331.6,1267.63,331.684Z" transform="translate(-1243.191 -309.664)"/>
  <path id="Tracé_495" data-name="Tracé 495" d="M1242.52,307.13l-.011.049.142-.013Z" transform="translate(-1222.081 -288.98)"/>
  <path id="Tracé_496" data-name="Tracé 496" d="M1205.6,269.722l-.156.013C1205.533,269.842,1205.545,269.754,1205.6,269.722Z" transform="translate(-1190.831 -257.442)"/>
  <path id="Tracé_497" data-name="Tracé 497" d="M1285.488,357.686a.654.654,0,0,0-.074-.242C1285.42,357.581,1285.383,357.721,1285.488,357.686Z" transform="translate(-1258.253 -331.4)"/>
  <path id="Tracé_498" data-name="Tracé 498" d="M1284.411,355.978l0,.059a.572.572,0,0,1,.154.171C1284.565,356.106,1284.537,356.006,1284.411,355.978Z" transform="translate(-1257.408 -330.164)"/>
  <path id="Tracé_499" data-name="Tracé 499" d="M1294.387,370.247l.025.059C1294.434,370.3,1294.441,370.288,1294.387,370.247Z" transform="translate(-1265.819 -342.194)"/>
  <path id="Tracé_500" data-name="Tracé 500" d="M1293.7,369.353a.033.033,0,0,1,.007-.025l-.062-.08A.4.4,0,0,1,1293.7,369.353Z" transform="translate(-1265.197 -341.352)"/>
  <path id="Tracé_501" data-name="Tracé 501" d="M1187.393,242.931v-.019C1187.3,242.891,1187.332,242.91,1187.393,242.931Z" transform="translate(-1175.564 -234.831)"/>
  <path id="Tracé_502" data-name="Tracé 502" d="M1254.364,328.736l.01,0,0-.011Z" transform="translate(-1232.076 -307.19)"/>
  <path id="Tracé_503" data-name="Tracé 503" d="M1252.9,327.053c.192-.005.214.056.237.143l.243-.285Z" transform="translate(-1230.842 -305.658)"/>
  <path id="Tracé_504" data-name="Tracé 504" d="M1206.469,269.667l0-.007-.025.01Z" transform="translate(-1191.671 -257.389)"/>
  <path id="Tracé_505" data-name="Tracé 505" d="M1271.092,351.424a.2.2,0,0,1,0-.121C1271.067,351.321,1271.056,351.356,1271.092,351.424Z" transform="translate(-1246.16 -326.223)"/>
  <path id="Tracé_506" data-name="Tracé 506" d="M1296.318,372.935c.026-.021.048-.072.077-.033l-.117-.11A.189.189,0,0,1,1296.318,372.935Z" transform="translate(-1267.413 -344.34)"/>
  <path id="Tracé_507" data-name="Tracé 507" d="M1297.165,383.412c.027.009.028.039.055.048l.051-.041C1297.214,383.341,1297.132,383.314,1297.165,383.412Z" transform="translate(-1268.155 -353.241)"/>
  <path id="Tracé_508" data-name="Tracé 508" d="M1294.85,375.918c-.092.076,0,.135.075.214l-.011-.016C1295.071,376.051,1294.96,375.984,1294.85,375.918Z" transform="translate(-1266.177 -346.976)"/>
  <path id="Tracé_509" data-name="Tracé 509" d="M1295.651,377.4a.3.3,0,0,1,.059.082C1295.772,377.458,1295.7,377.443,1295.651,377.4Z" transform="translate(-1266.885 -348.227)"/>
  <path id="Tracé_510" data-name="Tracé 510" d="M1292.373,368.332c0,.06.144-.058.12-.006C1292.65,368.289,1292.149,368.14,1292.373,368.332Z" transform="translate(-1264.072 -340.499)"/>
  <path id="Tracé_511" data-name="Tracé 511" d="M1293.132,377.159l.1-.114-.132.015Z" transform="translate(-1264.734 -347.926)"/>
  <path id="Tracé_512" data-name="Tracé 512" d="M1290.818,372.8l.063.168c.019-.016.043-.005.067.011C1290.893,372.884,1290.852,372.769,1290.818,372.8Z" transform="translate(-1262.81 -344.341)"/>
  <path id="Tracé_513" data-name="Tracé 513" d="M1291.826,375.591l.063.168,0-.06Z" transform="translate(-1263.66 -346.7)"/>
  <path id="Tracé_514" data-name="Tracé 514" d="M1283.262,362.12l-.142-.133c-.052.013-.048.073.008.12C1283.183,362.125,1283.239,362.172,1283.262,362.12Z" transform="translate(-1256.289 -335.23)"/>
  <path id="Tracé_515" data-name="Tracé 515" d="M1283.612,366.6c0-.059.021-.081.044-.132l-.153.1Z" transform="translate(-1256.643 -339.005)"/>
  <path id="Tracé_516" data-name="Tracé 516" d="M1280.885,364.326c.052-.012.194.121.13-.046C1280.963,364.292,1280.74,364.134,1280.885,364.326Z" transform="translate(-1254.395 -337.121)"/>
  <path id="Tracé_517" data-name="Tracé 517" d="M1272.727,347.967l.03.038.239-.177Z" transform="translate(-1247.558 -323.293)"/>
  <path id="Tracé_518" data-name="Tracé 518" d="M1259.681,337.745c.074.224.18-.064.227.152.088,0-.039-.177.042-.169C1259.811,337.662,1259.8,337.58,1259.681,337.745Z" transform="translate(-1236.559 -314.71)"/>
  <path id="Tracé_519" data-name="Tracé 519" d="M1151.39,191.829l-.009.137.063.012Z" transform="translate(-1145.251 -191.77)"/>
  <path id="Tracé_520" data-name="Tracé 520" d="M1149.168,191.608l.114-.155-.184.054C1149.127,191.525,1149.182,191.561,1149.168,191.608Z" transform="translate(-1143.326 -191.453)"/>
  <path id="Tracé_521" data-name="Tracé 521" d="M1224.656,293.48l.043-.02c.025-.048.007-.077-.029-.135Z" transform="translate(-1207.029 -277.341)"/>
  <path id="Tracé_522" data-name="Tracé 522" d="M1217.593,283.285l.018.029.094-.156Z" transform="translate(-1201.074 -268.769)"/>
  <path id="Tracé_523" data-name="Tracé 523" d="M1209.942,276.4c.037.056.116.093.153.15C1209.98,276.452,1210.1,276.247,1209.942,276.4Z" transform="translate(-1194.624 -263.024)"/>
</svg>
