<svg id="LOGO_TOOSHARE" xmlns="http://www.w3.org/2000/svg" width="147.015" height="26.966" viewBox="0 0 147.015 26.966">
  <g id="Calque_1" data-name="Calque 1">
    <path id="Tracé_1" data-name="Tracé 1" d="M13.76,5.735V26.577H7.418V5.735H0V.32H21.178V5.735Z" transform="translate(0 -0.28)" fill="#fcfdff"/>
    <path id="Tracé_2" data-name="Tracé 2" d="M142.505,67.534a9.993,9.993,0,0,1-.815,4.1,9.221,9.221,0,0,1-2.225,3.116,10.19,10.19,0,0,1-3.265,1.984,11.468,11.468,0,0,1-7.918,0,9.92,9.92,0,0,1-3.263-1.984,9.315,9.315,0,0,1-2.208-3.116,9.994,9.994,0,0,1-.819-4.1,9.865,9.865,0,0,1,.815-4.08,9.148,9.148,0,0,1,2.208-3.078,9.589,9.589,0,0,1,3.263-1.928,12.076,12.076,0,0,1,7.918,0,9.838,9.838,0,0,1,3.265,1.928,9.056,9.056,0,0,1,2.225,3.078A9.865,9.865,0,0,1,142.505,67.534Zm-5.859,0a5.268,5.268,0,0,0-.3-1.743,4.647,4.647,0,0,0-.853-1.5,4.343,4.343,0,0,0-1.377-1.056,4.586,4.586,0,0,0-3.783,0,4.118,4.118,0,0,0-1.354,1.056,4.522,4.522,0,0,0-.816,1.5,5.6,5.6,0,0,0,0,3.486A4.768,4.768,0,0,0,129,70.816a4.11,4.11,0,0,0,1.377,1.094,4.586,4.586,0,0,0,3.783,0,4.1,4.1,0,0,0,1.377-1.094,4.8,4.8,0,0,0,.835-1.539,5.591,5.591,0,0,0,.265-1.743Z" transform="translate(-106.714 -50.545)" fill="#fcfdff"/>
    <path id="Tracé_3" data-name="Tracé 3" d="M300.066,67.534a9.993,9.993,0,0,1-.816,4.1,9.2,9.2,0,0,1-2.225,3.116,10.183,10.183,0,0,1-3.267,1.984,11.472,11.472,0,0,1-7.919,0,9.919,9.919,0,0,1-3.263-1.984,9.329,9.329,0,0,1-2.207-3.116,9.973,9.973,0,0,1-.816-4.1,9.847,9.847,0,0,1,.816-4.08,9.161,9.161,0,0,1,2.207-3.078,9.588,9.588,0,0,1,3.263-1.928,12.079,12.079,0,0,1,7.919,0,9.833,9.833,0,0,1,3.263,1.928,9.041,9.041,0,0,1,2.225,3.078,9.867,9.867,0,0,1,.82,4.08Zm-5.861,0a5.267,5.267,0,0,0-.3-1.743,4.624,4.624,0,0,0-.853-1.5,4.343,4.343,0,0,0-1.378-1.056,4.258,4.258,0,0,0-5.134,1.056,4.541,4.541,0,0,0-.815,1.5,5.58,5.58,0,0,0,0,3.486,4.769,4.769,0,0,0,.834,1.539,4.085,4.085,0,0,0,1.378,1.094,4.586,4.586,0,0,0,3.783,0,4.1,4.1,0,0,0,1.378-1.094,4.77,4.77,0,0,0,.834-1.539A5.59,5.59,0,0,0,294.206,67.534Z" transform="translate(-244.544 -50.545)" fill="#fcfdff"/>
    <path id="Tracé_4" data-name="Tracé 4" d="M457.788,7.322A5.608,5.608,0,0,0,455.7,5.709a5.874,5.874,0,0,0-2.483-.6,7.366,7.366,0,0,0-1.252.109,3.23,3.23,0,0,0-1.141.416,2.827,2.827,0,0,0-.852.8,2.13,2.13,0,0,0-.344,1.252,2.028,2.028,0,0,0,.272,1.088,2.419,2.419,0,0,0,.8.76,7.071,7.071,0,0,0,1.252.6q.722.272,1.628.561,1.3.435,2.72.959a10.244,10.244,0,0,1,2.573,1.4A7.327,7.327,0,0,1,460.8,15.2a6.229,6.229,0,0,1,.761,3.208,8.377,8.377,0,0,1-.815,3.823A7.629,7.629,0,0,1,458.55,24.9a9.392,9.392,0,0,1-3.154,1.559,13.262,13.262,0,0,1-3.66.507,15.125,15.125,0,0,1-5.328-.96,11.267,11.267,0,0,1-4.276-2.736l4.059-4.132a7.5,7.5,0,0,0,2.483,1.94,6.738,6.738,0,0,0,3.063.779,6.182,6.182,0,0,0,1.341-.144,3.37,3.37,0,0,0,1.142-.472A2.379,2.379,0,0,0,455,20.37a2.745,2.745,0,0,0,.289-1.3,2.062,2.062,0,0,0-.362-1.232,3.545,3.545,0,0,0-1.033-.924,8.306,8.306,0,0,0-1.667-.755q-1-.346-2.265-.744a21.692,21.692,0,0,1-2.411-.942,8.075,8.075,0,0,1-2.1-1.4,6.446,6.446,0,0,1-1.485-2.066,6.97,6.97,0,0,1-.562-2.954,7.261,7.261,0,0,1,.87-3.66,7.557,7.557,0,0,1,2.283-2.5,9.8,9.8,0,0,1,3.19-1.434A14.466,14.466,0,0,1,453.33,0a13.339,13.339,0,0,1,4.437.8,11.471,11.471,0,0,1,3.97,2.355Z" transform="translate(-386.764)" fill="#fcfdff"/>
    <path id="Tracé_5" data-name="Tracé 5" d="M623.4,26.3V16.279a9.407,9.407,0,0,0-.108-1.478,3.541,3.541,0,0,0-.426-1.243,2.4,2.4,0,0,0-.835-.853,2.549,2.549,0,0,0-1.335-.316,2.882,2.882,0,0,0-2.447,1.127,4.524,4.524,0,0,0-.854,2.8V26.3H611.31V0h6.082V10.165h.075a5.747,5.747,0,0,1,2-1.984,6.076,6.076,0,0,1,3.3-.877,6.8,6.8,0,0,1,3.171.667A6.084,6.084,0,0,1,628.02,9.7a6.817,6.817,0,0,1,1.15,2.429,11.028,11.028,0,0,1,.352,2.745V26.3Z" transform="translate(-534.758)" fill="#fcfdff"/>
    <path id="Tracé_6" data-name="Tracé 6" d="M771,60.9a10.668,10.668,0,0,1,3.8-2.335,13.044,13.044,0,0,1,4.432-.778,11.857,11.857,0,0,1,3.951.575,5.9,5.9,0,0,1,2.615,1.779,7.593,7.593,0,0,1,1.465,3.042,17.98,17.98,0,0,1,.463,4.358v9.307h-5.564V74.887h-.111a4.57,4.57,0,0,1-2.129,1.779,7.571,7.571,0,0,1-3.1.626,9.467,9.467,0,0,1-2.3-.3,6.744,6.744,0,0,1-2.167-.959,5.227,5.227,0,0,1-1.613-1.781,5.526,5.526,0,0,1-.626-2.745,4.658,4.658,0,0,1,1.094-3.227,7.179,7.179,0,0,1,2.819-1.891,14.93,14.93,0,0,1,3.839-.89,39.475,39.475,0,0,1,4.116-.223v-.3a2.257,2.257,0,0,0-.964-2.021,4.219,4.219,0,0,0-2.379-.649,5.914,5.914,0,0,0-2.506.557,8,8,0,0,0-2.063,1.333Zm11.164,7.9h-.779q-1,0-2.021.093a8.444,8.444,0,0,0-1.817.352,3.363,3.363,0,0,0-1.317.761,1.745,1.745,0,0,0-.518,1.316,1.6,1.6,0,0,0,.24.89,1.861,1.861,0,0,0,.612.594,2.592,2.592,0,0,0,.853.316,4.943,4.943,0,0,0,.927.093A3.756,3.756,0,0,0,781.18,72.2a3.821,3.821,0,0,0,.983-2.762Z" transform="translate(-673.681 -50.553)" fill="#fcfdff"/>
    <path id="Tracé_7" data-name="Tracé 7" d="M936.62,63.354a4.7,4.7,0,0,0-.8-.148q-.391-.038-.76-.038a4.345,4.345,0,0,0-2.059.443,4.179,4.179,0,0,0-1.335,1.073,4.066,4.066,0,0,0-.723,1.369,4.565,4.565,0,0,0-.223,1.294v9.468H924.64V57.75h5.86v3.287h.07a6.021,6.021,0,0,1,2-2.314,5.159,5.159,0,0,1,3.005-.9,7.178,7.178,0,0,1,.724.036,2.866,2.866,0,0,1,.575.111Z" transform="translate(-808.851 -50.518)" fill="#fcfdff"/>
    <path id="Tracé_8" data-name="Tracé 8" d="M1039.522,67.821v.751a6.275,6.275,0,0,1-.038.7H1026.1a3.228,3.228,0,0,0,.465,1.41,3.967,3.967,0,0,0,1,1.093,4.906,4.906,0,0,0,2.949.983,5.123,5.123,0,0,0,2.448-.537,4.829,4.829,0,0,0,1.628-1.391l4.228,2.671a8.553,8.553,0,0,1-3.425,2.908,11.368,11.368,0,0,1-4.951,1.019,11.832,11.832,0,0,1-3.932-.649,9.524,9.524,0,0,1-3.246-1.892,8.756,8.756,0,0,1-2.19-3.063,10.207,10.207,0,0,1-.8-4.154,10.392,10.392,0,0,1,.779-4.1,9.268,9.268,0,0,1,2.115-3.116,9.426,9.426,0,0,1,3.152-1.985,10.781,10.781,0,0,1,3.937-.7,9.937,9.937,0,0,1,3.747.686,8.16,8.16,0,0,1,2.93,1.984,9.191,9.191,0,0,1,1.909,3.152A12.225,12.225,0,0,1,1039.522,67.821Zm-5.6-2.337A3.644,3.644,0,0,0,1033.01,63a3.429,3.429,0,0,0-2.726-1.039,4.616,4.616,0,0,0-1.628.278,4.257,4.257,0,0,0-1.3.761,3.755,3.755,0,0,0-.889,1.127,3.316,3.316,0,0,0-.376,1.354Z" transform="translate(-892.507 -50.54)" fill="#fcfdff"/>
  </g>
</svg>
