<svg id="LOGO_TOOSHARE" xmlns="http://www.w3.org/2000/svg" width="177.713" height="32.597" viewBox="0 0 177.713 32.597">
  <g id="Calque_1" data-name="Calque 1">
    <path id="Tracé_1" data-name="Tracé 1" d="M16.633,6.865V32.06H8.967V6.865H0V.32H25.6V6.865Z" transform="translate(0 -0.272)"/>
    <path id="Tracé_2" data-name="Tracé 2" d="M146.789,69.571a12.08,12.08,0,0,1-.985,4.954,11.147,11.147,0,0,1-2.69,3.766,12.317,12.317,0,0,1-3.946,2.4,13.863,13.863,0,0,1-9.571,0,11.991,11.991,0,0,1-3.945-2.4,11.259,11.259,0,0,1-2.669-3.766,12.08,12.08,0,0,1-.99-4.954,11.925,11.925,0,0,1,.985-4.932,11.058,11.058,0,0,1,2.669-3.721,11.591,11.591,0,0,1,3.945-2.331,14.6,14.6,0,0,1,9.571,0,11.892,11.892,0,0,1,3.946,2.331,10.948,10.948,0,0,1,2.69,3.721A11.925,11.925,0,0,1,146.789,69.571Zm-7.083,0a6.368,6.368,0,0,0-.359-2.107,5.618,5.618,0,0,0-1.031-1.817,5.25,5.25,0,0,0-1.665-1.276,5.543,5.543,0,0,0-4.573,0,4.977,4.977,0,0,0-1.636,1.276,5.466,5.466,0,0,0-.987,1.816,6.774,6.774,0,0,0,0,4.214,5.764,5.764,0,0,0,1.014,1.86,4.968,4.968,0,0,0,1.665,1.323,5.543,5.543,0,0,0,4.573,0,4.953,4.953,0,0,0,1.665-1.323,5.8,5.8,0,0,0,1.01-1.86,6.759,6.759,0,0,0,.321-2.107Z" transform="translate(-103.525 -49.034)"/>
    <path id="Tracé_3" data-name="Tracé 3" d="M304.35,69.571a12.08,12.08,0,0,1-.987,4.954,11.125,11.125,0,0,1-2.69,3.766,12.311,12.311,0,0,1-3.949,2.4,13.867,13.867,0,0,1-9.573,0,11.991,11.991,0,0,1-3.945-2.4,11.278,11.278,0,0,1-2.667-3.766,12.054,12.054,0,0,1-.987-4.954,11.9,11.9,0,0,1,.987-4.932,11.074,11.074,0,0,1,2.667-3.721,11.591,11.591,0,0,1,3.945-2.331,14.6,14.6,0,0,1,9.573,0,11.886,11.886,0,0,1,3.945,2.331,10.928,10.928,0,0,1,2.69,3.721,11.926,11.926,0,0,1,.992,4.932Zm-7.084,0a6.368,6.368,0,0,0-.359-2.107,5.589,5.589,0,0,0-1.031-1.817,5.251,5.251,0,0,0-1.665-1.276A5.147,5.147,0,0,0,288,65.647a5.489,5.489,0,0,0-.986,1.816,6.746,6.746,0,0,0,0,4.214,5.764,5.764,0,0,0,1.008,1.86,4.938,4.938,0,0,0,1.665,1.323,5.543,5.543,0,0,0,4.573,0,4.953,4.953,0,0,0,1.665-1.323,5.765,5.765,0,0,0,1.008-1.86A6.754,6.754,0,0,0,297.266,69.571Z" transform="translate(-237.234 -49.034)"/>
    <path id="Tracé_4" data-name="Tracé 4" d="M461.058,8.851a6.779,6.779,0,0,0-2.519-1.95,7.1,7.1,0,0,0-3-.724,8.9,8.9,0,0,0-1.514.132,3.9,3.9,0,0,0-1.379.5,3.419,3.419,0,0,0-1.029.964A2.575,2.575,0,0,0,451.2,9.29a2.452,2.452,0,0,0,.329,1.315,2.924,2.924,0,0,0,.964.919,8.547,8.547,0,0,0,1.514.724q.873.328,1.968.678,1.577.525,3.288,1.16a12.382,12.382,0,0,1,3.111,1.688,8.857,8.857,0,0,1,2.322,2.607,7.53,7.53,0,0,1,.92,3.878,10.125,10.125,0,0,1-.985,4.621,9.221,9.221,0,0,1-2.651,3.22,11.353,11.353,0,0,1-3.813,1.885,16.032,16.032,0,0,1-4.425.613,18.283,18.283,0,0,1-6.441-1.161,13.619,13.619,0,0,1-5.169-3.308l4.906-5a9.071,9.071,0,0,0,3,2.345,8.146,8.146,0,0,0,3.7.942,7.472,7.472,0,0,0,1.621-.174,4.073,4.073,0,0,0,1.381-.571,2.876,2.876,0,0,0,.941-1.051,3.318,3.318,0,0,0,.35-1.577,2.493,2.493,0,0,0-.438-1.49,4.284,4.284,0,0,0-1.249-1.117,10.041,10.041,0,0,0-2.015-.913q-1.211-.418-2.738-.9a26.221,26.221,0,0,1-2.914-1.138,9.761,9.761,0,0,1-2.542-1.688,7.792,7.792,0,0,1-1.8-2.5,8.425,8.425,0,0,1-.68-3.571,8.777,8.777,0,0,1,1.052-4.425,9.135,9.135,0,0,1,2.76-3.027A11.849,11.849,0,0,1,451.331.548,17.487,17.487,0,0,1,455.669,0a16.124,16.124,0,0,1,5.363.964,13.866,13.866,0,0,1,4.8,2.847Z" transform="translate(-375.203)"/>
    <path id="Tracé_5" data-name="Tracé 5" d="M625.925,31.789V19.679a11.355,11.355,0,0,0-.13-1.786,4.282,4.282,0,0,0-.515-1.5,2.9,2.9,0,0,0-1.01-1.031,3.081,3.081,0,0,0-1.614-.381,3.483,3.483,0,0,0-2.958,1.362,5.469,5.469,0,0,0-1.032,3.385V31.789H611.31V0h7.352V12.287h.091a6.948,6.948,0,0,1,2.422-2.4,7.345,7.345,0,0,1,3.99-1.06A8.224,8.224,0,0,1,629,9.636a7.355,7.355,0,0,1,2.511,2.084,8.244,8.244,0,0,1,1.39,2.937,13.341,13.341,0,0,1,.425,3.318V31.789Z" transform="translate(-518.774)"/>
    <path id="Tracé_6" data-name="Tracé 6" d="M771.183,61.553a12.9,12.9,0,0,1,4.6-2.823,15.767,15.767,0,0,1,5.357-.94,14.332,14.332,0,0,1,4.776.695,7.127,7.127,0,0,1,3.161,2.151,9.179,9.179,0,0,1,1.771,3.677,21.727,21.727,0,0,1,.56,5.268v11.25h-6.726V78.457h-.135a5.524,5.524,0,0,1-2.573,2.151,9.152,9.152,0,0,1-3.743.757,11.444,11.444,0,0,1-2.779-.359,8.154,8.154,0,0,1-2.62-1.16,6.318,6.318,0,0,1-1.95-2.153,6.679,6.679,0,0,1-.757-3.318,5.631,5.631,0,0,1,1.323-3.9,8.679,8.679,0,0,1,3.407-2.286,18.047,18.047,0,0,1,4.641-1.076,47.717,47.717,0,0,1,4.976-.269v-.359a2.728,2.728,0,0,0-1.165-2.443,5.1,5.1,0,0,0-2.876-.784,7.149,7.149,0,0,0-3.029.673,9.669,9.669,0,0,0-2.493,1.611Zm13.495,9.55h-.941q-1.211,0-2.443.112a10.206,10.206,0,0,0-2.2.425,4.065,4.065,0,0,0-1.592.92,2.11,2.11,0,0,0-.627,1.591,1.932,1.932,0,0,0,.291,1.076,2.248,2.248,0,0,0,.74.718,3.134,3.134,0,0,0,1.031.381,5.976,5.976,0,0,0,1.12.112,4.541,4.541,0,0,0,3.43-1.234,4.619,4.619,0,0,0,1.188-3.339Z" transform="translate(-653.544 -49.042)"/>
    <path id="Tracé_7" data-name="Tracé 7" d="M939.122,64.524a5.676,5.676,0,0,0-.964-.179q-.472-.045-.919-.045a5.252,5.252,0,0,0-2.488.536,5.051,5.051,0,0,0-1.614,1.3,4.916,4.916,0,0,0-.874,1.655,5.519,5.519,0,0,0-.269,1.564V80.8H924.64V57.75h7.084v3.974h.085a7.279,7.279,0,0,1,2.422-2.8,6.236,6.236,0,0,1,3.633-1.084,8.673,8.673,0,0,1,.875.044,3.467,3.467,0,0,1,.695.135Z" transform="translate(-784.673 -49.008)"/>
    <path id="Tracé_8" data-name="Tracé 8" d="M1043.542,69.919v.908a7.618,7.618,0,0,1-.045.851h-16.185a3.9,3.9,0,0,0,.562,1.7,4.8,4.8,0,0,0,1.211,1.321,5.931,5.931,0,0,0,3.565,1.188,6.193,6.193,0,0,0,2.959-.649,5.844,5.844,0,0,0,1.968-1.682l5.11,3.229a10.338,10.338,0,0,1-4.14,3.515,13.742,13.742,0,0,1-5.985,1.232,14.3,14.3,0,0,1-4.753-.784,11.517,11.517,0,0,1-3.924-2.287,10.584,10.584,0,0,1-2.647-3.7,12.336,12.336,0,0,1-.964-5.021,12.56,12.56,0,0,1,.942-4.954,11.2,11.2,0,0,1,2.557-3.766,11.4,11.4,0,0,1,3.81-2.4,13.032,13.032,0,0,1,4.759-.846,12.012,12.012,0,0,1,4.53.83,9.865,9.865,0,0,1,3.542,2.4,11.113,11.113,0,0,1,2.308,3.81A14.782,14.782,0,0,1,1043.542,69.919Zm-6.769-2.825a4.4,4.4,0,0,0-1.1-3,4.145,4.145,0,0,0-3.3-1.256,5.578,5.578,0,0,0-1.968.336,5.148,5.148,0,0,0-1.57.92,4.537,4.537,0,0,0-1.075,1.362,4,4,0,0,0-.454,1.636Z" transform="translate(-865.829 -49.029)"/>
  </g>
</svg>
