<svg xmlns="http://www.w3.org/2000/svg" width="143.069" height="51.365" viewBox="0 0 143.069 51.365">
  <path id="Tracé_524" data-name="Tracé 524" d="M20.931,0h.7l.232.465c-.2.165-.193.2-.232.542-1.247.087-1.229,1.261-2.014,1.782-1.664,1.1-4.321,1.627-5.578,3.1-.7.832-1.14,2.4-2.557,2.479-.222-.423-.426-.256-.542-.93.463-.294.232-.866.542-1.317a14.264,14.264,0,0,1,2.247-2.557C14.721,2.755,20.674.444,20.931,0ZM31.622,7.127a11.145,11.145,0,0,0,4.106-.31c.013-1.13.443-1.1.465-2.247H35.186l-.542-.7c.015-.806.333-.8.542-1.317a2.6,2.6,0,0,0-.775-.232c-.283.731-.858,1-1.007,1.782a.96.96,0,0,1,.7,1.007c-.507.374-.335,1.2-.93,1.472H31.854a1.365,1.365,0,0,0-.775-1.472,2.336,2.336,0,0,1-1.317.7,1.694,1.694,0,0,0-.7-.465c-.028-.7-.32-.8-.233-1.549a3.782,3.782,0,0,0,2.789-2.712C32.437.953,34.055.049,35.186.542a10.963,10.963,0,0,0,4.029,1.24c.113.38.1.207.31.387-.361.336-.428.337-1.007.387v.232a3.163,3.163,0,0,1,1.24.232.958.958,0,0,1,.465-.465l-.155-.542h.62c.834.525,1.825-.143,2.867.31a19.978,19.978,0,0,1,2.789,1.24c5.072,3.306,8.349,8.036,11.311,13.48.583,1.072.774,2.776,1.24,3.874.887,2.1,0,4.779,0,7.282l-.465.233a21.592,21.592,0,0,0-.775-2.247V24.869c-.275-.808-1.24-1.537-1.55-2.479a5.612,5.612,0,0,1-4.8-2.324c-.4.123-.344.274-.31.775a4.106,4.106,0,0,1,1.317,1.782c.8.066.707-.257,1.24-.542.385.885,1.153.888,1.24,2.092-.406.4-.342,1.333-.7,1.782-.624.788-3.461,2.546-3.564,3.331a2.743,2.743,0,0,0,1.24.232A1.515,1.515,0,0,1,53,28.743c.613,3.367-2.442,5.859-3.8,8.135-.576.968.607,3.786,0,4.881-.513.926-1.733,1.412-2.324,2.247-.38.536.144,1.177-.232,1.782-.244.431-.951.636-1.24,1.007L45.1,47.8c-1.034,1.432-3.41,3.55-6.043,3.021-.156-1.153-.674-1.266-1.085-2.014V47.8A21.464,21.464,0,0,1,36.5,45.245c-.473-1.461,1.753-2.182.7-4.339-.713-1.528-2.237-1.709-2.247-4.029.274-.233.263-.708.232-1.24-.967-.429-.955-.343-2.324-.31a1.382,1.382,0,0,0-1.7-.93,5.981,5.981,0,0,1-2.867,1.007h-1.24c-3.121,1.174-3.9-1.628-5.655-3.1-.3-.253-.8-.212-1.007-.542-.646-1.049.535-2.659.232-3.254a7.919,7.919,0,0,1-.7-1.782c.786-1.087.9-2.524,1.7-3.564.359-.457,1.221-.592,1.549-1.085s-.018-1.411.31-1.937c.534-.858,1.558-.936,1.7-2.324-.326-.138-1.44-.6-1.55-1.007a12.161,12.161,0,0,1-.232-2.789,5.022,5.022,0,0,1,3.1-.542c.139-.294.11-.239.465-.31V11.7c-.448-.144-1.17-.43-1.24-1.007,2.286-.491,2.892-2.743,5.113-3.1V7.127c-.356-.171-.346-.473-.31-1.007a2.758,2.758,0,0,1,.775-.232ZM21.4,3.254l.775.077V3.8c-.885.406-1.326,1-2.789,1.007a1.772,1.772,0,0,1-.31-1.007c.421-.1.3-.175.775-.232C20.041,3.839,20.991,3.508,21.4,3.254Zm3.874,6.663A6.343,6.343,0,0,1,25.734,7.9a1.678,1.678,0,0,0-.775-.232c-.019.371-.2,1.092-.465,1.24-.24.556-.844.6-1.549.465V8.909c.322-.215.139-.564.465-.775.332-.628,1.2-.263,1.549-.775-.284-.17-.269-.53-.232-1.007.442-.2.359-.41,1.007-.465.591,1.341,2.23,1.918,2.247,3.486h-.155A8.075,8.075,0,0,1,25.269,9.917Zm53.844-1.24v1.24c2.61.929,4.9,1.337,4.8,5.113-.76.685-1.016,1.506-2.014,2.014-1.8.918-5.773-.082-5.578-1.782.628-.294.612-.895,1.472-1.007.364.684,1.689,1.04,2.789,1.007.487-.565.87-.527.775-1.549-.389-.147-.672-.529-1.007-.7-.854-.429-1.664-.351-2.479-.852-.42-.271-.564-.8-1.085-1.007-.317-2.559-.131-4.06,2.247-4.8,1.747-.546,4.39.425,4.416,1.7-.39.56-.551,1.159-1.549,1.085C81.534,8.235,79.994,8.608,79.113,8.677Zm8.367,0L84.691,8.6a4.618,4.618,0,0,1-.232-1.782c1.742-.72,5.774-.7,8.135-.387a4.984,4.984,0,0,1,.232,1.937l-.232.077c-.358.326-2,.2-2.557.232a65.5,65.5,0,0,1-.232,8.367l-2.324-.077Zm7.437-2.324h1.55c.568,1.592.247,4.5.232,6.508.182.744.248,1.753,1.007,1.937a1.389,1.389,0,0,0,1.317.465c.533-.761,1.248-.564,1.24-1.937.3-1.211-.362-5.754.232-6.43.207-.62.852-.6,1.7-.542h.077c.956,1.357.563,4.889.542,7.128-.421.3-.187,1.341-.465,1.782a5.483,5.483,0,0,1-2.634,2.014,3.81,3.81,0,0,1-2.247-.232H96.467c-1.748-1.009-2.309-3.27-2.324-6.043,0-.963-.343-3.586.232-4.106C94.507,6.536,94.653,6.55,94.918,6.353Zm10.226,10.691V6.663c.326-.119.19.014.31-.31,4.38-.092,7.027.534,7.825,4.029a4.141,4.141,0,0,1,.077,2.324c-.391,1.137-.2,1.987-.852,2.789C111.122,17.228,108.33,17.106,105.144,17.044Zm14.255,0H116.92l-.078-3.874c-.7-1.665-2.84-4.755-3.021-6.585,4.725-.973,2.27,3.716,4.571,4.106.124-.7,1.433-4.095,1.859-4.339h1.7a1.406,1.406,0,0,1,.232,1.24c-.487.354-2.293,4.385-2.711,5.191Q119.438,14.913,119.4,17.044ZM9.7,7.127l-.078.7c-.418.109-.409.242-.93.31V7.9h.155l.31-.775ZM8.38,8.135h.232v.775c-.577.325-.5.921-1.317,1.007L7.14,9.452A3.8,3.8,0,0,0,8.38,8.135Zm99.554.465c-.623.555-.5,1.9-.465,3.1.287.382.183,2.749.232,3.331h1.162C111.664,14.077,112.076,8.458,107.933,8.6ZM6.288,15.03a1.23,1.23,0,0,0-1.007.465c-.611.362-.261,1.763-.232,2.324-2.293,1.017-2.443,4.152-3.564,6.353-.411.806.072,2.592-.775,3.021C.661,26.254.2,25.608.4,24.4A23.747,23.747,0,0,1,4.506,13.945c.711-.983.662-3.05,2.092-3.254.243.321.1.121.542,0a1.93,1.93,0,0,1,.232.93c-.133.706.327.921.465,1.55-.758.436-.3,1.493-.232,2.324l-.7.542c-.47.066-.488.046-.62-.31C6.131,15.517,6.24,15.484,6.288,15.03Zm35.018-1.085c1.04.018,2.041-.952,3.1-.465.379.188.684.7,1.472.542.358,0,.172-.031.31-.31.278-.138.092.041.232-.232l-2.092-1.317c.047-.686.018-.986-.465-1.162-.156.176-.245.184-.542.232V11.7c.415.135.266.044.232.465h-.7a1.2,1.2,0,0,0-1.549-.775,6.9,6.9,0,0,0-.465,1.782C41.164,13.338,41.269,13.471,41.306,13.945ZM33.636,11.7v.775A12.872,12.872,0,0,1,36.5,14.41c-.243.964-.532,1.342-.775,2.092-.6.1-1.271.029-1.317-.7.348-.026,1.109-.032,1.317-.232h.155V15.03c-.808-.43-3.37-2.464-4.029-2.557-.42.735-1.6.726-2.557.775-.005,1.457-.778.988-1.239,1.782v1.24c-.091.285-.409.459-.542.775-.9.009-1.09.369-1.782.542v.465c1.825.014,2-.494,3.021-1.007.958-.479,3.318-.527,4.648-.542a4.835,4.835,0,0,1,.233,1.782,3.333,3.333,0,0,1,1.007.542h1.549c.769.448.916.985,2.324,1.007V18.826a1.944,1.944,0,0,0,.775-.465c.835.228,1.956.641,2.712.93.947.362,1.928-.257,2.867,0a3.483,3.483,0,0,1,.542-.852A5.258,5.258,0,0,0,45.1,16.5H41.771c-.191-.484-.7-.6-.93-1.007-.258-.453-.123-1.212-.542-1.472h-.542a1.335,1.335,0,0,1-.542.62c.263.539.529.556.542,1.395l-.62.465h-.077C38.4,15.082,35.4,11.913,33.636,11.7ZM31.854,13.48h.465c.045.841.3.88.31,1.782h-.775Zm12.318,3.564c.383.063.231-.052.387.232h-.387Zm1.472,4.029c.107,1.257,1.232,2.047,1.782,2.867.4.6.142,1.457.542,2.014a22.2,22.2,0,0,1,1.7,2.014h.31V26.651A20.1,20.1,0,0,1,48.2,24.4v-.775a11.65,11.65,0,0,0-2.169-2.557ZM78.881,23.4H81.36c.152.289-.033.127.31.232.05.608.288.653.465,1.007.444.889.122,1.7.542,2.557.737,1.429,2.191,5.188,2.014,6.9H82.445c-.126-.271-.008-.171-.31-.31a3.874,3.874,0,0,0-.775-2.247H78.881c-.125.287-.412.327-.542.542-1.051,1.78.593,2.132-2.789,2.014a9.3,9.3,0,0,1,1.24-4.106v-.93C77.5,27.336,78.137,25.124,78.881,23.4Zm9.917,0c2.043-.085,4.545-.124,4.571,1.782-.706.331-.592.85-1.782.775-.411-.814-2.227-.43-2.789,0-2.114,1.67-.914,6.643,2.014,6.275a4.161,4.161,0,0,1,1.782-.93c.263.612.836.825,1.007,1.549-.514.333-.949.961-1.472,1.24-2.033,1.081-5.1-.505-5.888-1.55-.393-.519-.257-1.055-.542-1.7-.209-.476-.931-2.093-.465-3.1A10.716,10.716,0,0,1,87.016,24.4C87.494,23.972,88.44,23.938,88.8,23.4Zm8.909,0c1.527-.084,3.065-.038,3.874.542.962.733.306,2.069-1.085,2.014-1.067-2.062-4.969,1.208-3.8,4.261,1.075,2.662,2.541,1.933,4.571,1.085a2.512,2.512,0,0,0,1.007,1.007c.241,2.355-4.572,2.352-6.043,1.239-1.828-1.382-3.077-5.514-1.317-8.135C95.448,24.622,97.408,23.849,97.707,23.4Zm6.663,0h6.12a7.594,7.594,0,0,1,.232,2.014l-.465.078c-.72.6-3.207-.4-3.641.465-.213.217-.181.795-.155,1.24l.465.542h3.1v.31c.336.336.09,1.14,0,1.472a14.758,14.758,0,0,1-3.254.232l-.155.078A8.173,8.173,0,0,0,106.694,32l4.029.078a4.834,4.834,0,0,1,.232,1.782c-1.672.6-4.726.247-6.818.232C103.71,32.653,103.571,24.2,104.37,23.4Zm10.536,0c2.374-.058,3.7.229,4.8,1.24l-.077.542a4.194,4.194,0,0,0-1.085,1.007,3.171,3.171,0,0,0-3.409-.232v.775c1.915.806,4.17,1.657,5.036,3.564l-.232,2.247-1.782,1.472c-1.83.972-5.38-.06-5.888-1.472.756-.426.513-1.218,1.782-1.24a3.343,3.343,0,0,0,2.557.93c.588-.507,1.057-.346,1.007-1.472-1.688-.611-6.5-2.574-4.8-5.578C113.309,24.3,114.327,24.108,114.906,23.4Zm8.832,0a7.75,7.75,0,0,1,4.648,1.085v.7c-.6.187-.732.759-1.317,1.007-.45-.922-3.319-1.187-3.254.465,1.852.962,6.991,2.706,4.571,6.12-1.1,1.576-6.468,2.339-7.2,0-.141-.063-.049-.035,0-.155a1.441,1.441,0,0,1,1.549-1.317,3.364,3.364,0,0,0,2.557.93c.481-.447.949-.316,1.007-1.24-.216-.163-.179-.117-.232-.465-1.4-.224-5.875-2.388-4.8-4.8C121.836,24.422,122.784,24.238,123.738,23.4Zm-43.85,2.557c-.008,1.341-.644,2.267-.775,3.564h2.014c-.1-1.286-.748-2.14-.775-3.564ZM1.717,29.75H1.252c-.113-.515-.362-.593-.542-1.007h.542C1.451,29.185,1.662,29.1,1.717,29.75Zm.232,0h.542c.138.278-.041.092.232.232v.31c-.321.12-.247.181-.7.232Zm-.775,3.331H.71C.68,32.09.5,31.076.478,29.827H.71C.7,31.387,1.161,31.655,1.175,33.081Zm1.007,0c2,.045,2.213,1.432,3.331,2.247l1.549.542c.755.655.759,2.223,1.55,2.789,1.667,1.108,4.859,1.113,5.578,3.1.327.9-.488,1.572-.7,2.014s.263,2.826.233,3.564a1.788,1.788,0,0,0-1.317.7c-.558.756.646,3.162-1.472,3.331-.478-1.1-1.894-1.633-2.557-2.557C7.366,47.4,7.028,45.727,6.056,44.237c-.455-.711-1.264-1.318-1.782-2.014a31.03,31.03,0,0,1-1.782-3.331c-.52-1.041.042-3.314-.542-4.261-.184-.3-.531-.4-.7-.775.512-.04.677-.052.775-.542C2.215,33.174,2.082,33.312,2.182,33.081ZM51.843,39.9l.465.077-.077.7c-1.123,1.145-.666,4.175-2.789,4.339a.971.971,0,0,0-.232-.387,27.39,27.39,0,0,1,1.317-3.409C51.032,40.7,51.531,40.588,51.843,39.9Zm79.1.31c1.758-.023,3.928.271,4.029,1.782-.447.189-.658.648-.93,1.007-1.068-.05-1.436-.468-2.867-.542-.347.606-1.129.867-1.472,1.549-.99,1.969.167,5.844,2.789,5.113.642-.179.957-.678,1.782-.775.213.452,1.071,1.039.775,1.472-.5,1.34-3.01,1.781-4.648,1.317-2-.567-3.1-2.14-3.331-4.571l-.232-1.007c.566-1.807.753-3.281,2.014-4.339C129.372,40.779,130.567,40.776,130.943,40.209ZM78.571,48.576c-.091.768-.414,1.314-.542,2.247a4.275,4.275,0,0,1-2.557,0,10.958,10.958,0,0,1,1.317-3.8V46.019c.436-.893.805-2.172,1.24-3.1.33-.666.206-2.12.775-2.479h2.634c.6,1.621,1.276,3.782,2.014,5.346v1.007c.552,1.124,1.453,2.746,1.24,4.261a5.719,5.719,0,0,1-2.479-.232c-.159-.9-.454-1.478-.62-2.247Zm7.67-8.135h2.014c.339,2.68.017,6.31.31,8.367a29.442,29.442,0,0,1,4.029.232c.086.564.289,1.639-.232,1.859-.5.539-5.634.218-6.353,0C85.99,48.043,85.432,42.72,86.241,40.441Zm10.459,0c.025,2.459-.359,6.014.232,8.367l3.874.077a5.487,5.487,0,0,1,.232,1.937.748.748,0,0,0-.465.31H94.685c-.129-.281-.18-.185-.31-.465-.582-.562-.155-6.379-.155-7.67,0-.665-.171-1.928.155-2.324S96,40.421,96.7,40.441Zm6.12,0h2.247c.026,2.634.052,5.291.077,7.9.008.769.217,2.262-.232,2.557l-.155.232a6.065,6.065,0,0,1-2.169-.31C102.569,47.984,102.016,42.7,102.82,40.441Zm6.9,0h2.557c.586,1.346,1.135,3.212,1.782,4.571.432.907.106,1.654.542,2.557A7.684,7.684,0,0,1,115.6,50.9a.97.97,0,0,0-.387.232,6.064,6.064,0,0,1-2.169-.31c-.03-.73-.221-.884-.232-1.7a5.615,5.615,0,0,0-3.331-.542,5.466,5.466,0,0,1-1.162,2.557h-1.627c-.189-.282-.258-.223-.31-.7C107.413,47.112,108.426,43.533,109.715,40.441Zm15.34,0a87.221,87.221,0,0,1,.232,10.381l-.465.232A5.033,5.033,0,0,1,122.5,50.9c-.577-2.327-2.695-3.969-3.1-6.43h-.077c-.44.2-.437.427-.387,1.085.351.216.351,5.126,0,5.346l-.155.232h-1.627c-.126-.271-.008-.171-.31-.31q.039-5.19.078-10.381h2.324c.8,2.077,3.116,4.068,3.254,6.585l.387.077h.077c.173-1.971-.465-4.837.077-6.663Zm18.361,2.014h-4.029l-.31.387.078,1.627c.769.074,2.887-.173,3.331.31.36.308.251,1.254.155,1.782h-3.254c-.138.278.041.092-.232.232v2.014l4.261.077v2.247h-6.353c-.126-.271-.008-.171-.31-.31-.01-3.449-.373-6.864.077-10.381h6.353A5.815,5.815,0,0,1,143.416,42.455ZM79.888,43c-.019,1.37-.7,2.125-.775,3.486h2.014v-.465c-.488-.311-.789-2.247-.775-3.021Zm30.834.232a21.148,21.148,0,0,0-.7,3.254h1.782a8.237,8.237,0,0,0-.775-3.254Z" transform="translate(-0.35)" fill-rule="evenodd"/>
</svg>
