<svg xmlns="http://www.w3.org/2000/svg" width="218.342" height="73.127" viewBox="0 0 218.342 73.127">
  <path id="Tracé_525" data-name="Tracé 525" d="M7.258,1C18.75.982,20.605,13.72,11.438,16.047,4.084,17.913-2.761,10.4,1.965,4.065,3.177,2.438,5.487,2.083,7.258,1ZM165.806,22.176a7.22,7.22,0,0,1,4.18,1.393c1.3,3.022,1.9,7.694-1.393,9.195-1.164.824-2.984.428-4.458,0-1.7-2.162-3.347-7.572,0-9.474Zm-78.3.279,1.114.558c.082,3.048.607,8.243-.557,10.31h-.279l-.557-.279Q87.368,27.75,87.508,22.455ZM99.489,33.043c-1.181-.087-1.017.173-1.672-.557-1.533-1.78-2.341-5.746-4.737-6.687v7.244H91.687q.14-5.293.279-10.588l1.672.558,4.18,7.523.557-.279v-7.8h.836l.279.279Zm5.294-9.474h-3.065V22.455h7.245l.557.558-.279.557-3.065.278v9.2l-.558.279h-.278l-.558-.279Zm6.966-1.115c1.987-.093,5.127-.294,6.13.558l-.279.557-4.737.278v3.065c1.621-.087,3.339-.1,4.18.558l-.279.557-3.9.279v3.623l.557.279c1.37-.356,4.065-.489,4.458.836h-6.13Zm8.917,0c3.211-.127,4.977.227,6.688,1.393V25.8c-.2,1.747-.526,2.019-1.95,2.507.5,2.093,2.077,3.237,1.95,5.016l-1.115-.279-2.507-4.458c-2.951.31-1.574,2.752-2.508,4.737l-.557-.279Zm17,10.588-1.672-.279c-.736-2.012-2.79-6.25-4.737-7.245v7.523h-1.115q.14-5.293.279-10.588h.278l1.393.836,3.9,7.245.557-.279v-7.8l1.115.279Zm5.573-10.588,1.672.558,3.065,10.31h-.279c-1.822-1.984-1.184-3.5-5.573-3.344l-.557.279-.836,2.786h-1.115v-.279Zm9.474,1.115v9.474h-1.393V23.57h-3.065V22.455H155.5l.557.558-.279.557Zm5.573-1.115,1.115.558V33.043h-1.115ZM181.41,33.043l-1.95-.557c-.608-2.119-2.523-5.991-4.458-6.966v7.523h-1.115q.14-5.293.279-10.588h1.114l4.458,8.081.557-.279v-7.8l1.115.279Zm5.573-10.588,1.672.279,3.065,10.31h-.836l-.557-.279c-.192-2.647-1.225-2.981-4.459-2.786l-.557.279-.558,2.786H183.36v-.279Zm6.966,0,1.115.558c.093,3.065.186,6.158.279,9.2,1.032-.232,3.8-.314,4.458.836l-5.294.279h-.279l-.557-.279Q193.809,27.75,193.948,22.455ZM121.78,23.57q.14,2.089.279,4.18a6.017,6.017,0,0,0,4.18-1.115v-.278l-.557-2.508A12.981,12.981,0,0,0,121.78,23.57Zm-120.094,0,14.489.278c-.093,16.16-.186,32.462-.278,48.484H1.686Zm26.75,0H42.925C42.8,34.4,40.5,53.616,45.154,60.35c5.988,1.987,9.913-.635,12.539-4.458V23.57h14.49V72.332c-2.828.092-10.074.933-11.7-.557l-1.114-5.851h-.279c-3.644,1.82-5.637,5.507-10.031,6.966C23.546,81.358,28.242,44.318,28.436,23.57Zm137.091,0c-2.332,2.166-2.309,4.714-1.114,7.8l2.786.836,1.95-1.115a13.441,13.441,0,0,0,.279-5.851l-1.393-1.672Zm-22.013.557c-.619,2.345-2.512,4.858,1.393,4.737l.557-.279v-.279C144.8,26.962,144.671,25.014,143.514,24.127Zm42.632,4.737c1.667.056,2.359.053,3.065-.558l-1.672-4.18h-.279ZM142.121,41.4c2.182-.061,3.225.274,4.18,1.393l-.557.557a5.23,5.23,0,0,0-3.9-.557l-.557,1.115.836,1.672c1.574.427,3.44,1.183,4.18,2.508l.558,1.95c-1.139,1.612-1.7,2.443-4.458,2.508l-2.787-1.672.558-.558c1.326.466,2.407,1.208,3.622.836l1.672-.836-.278-1.95c-2.249-1-4.1-1.716-5.294-3.9l1.115-2.507Zm34.83,0,3.344.558a7.627,7.627,0,0,1,.279,9.752l-3.344.836c-2.68-1.031-5.4-4.505-3.344-8.36C174.587,42.452,175.422,42.281,176.951,41.4Zm-89.723.279,1.393.279c-.22,3.243-1.228,10.152,2.787,9.474,2.961-.5,2.464-6.18,2.229-9.753h1.115v7.8l-1.393,2.507-3.065.558a4.043,4.043,0,0,1-2.229-1.672C86.8,49.068,87.15,44.942,87.229,41.681Zm10.867,0,1.672.279c.64,2.063,2.739,6.5,4.737,7.244V41.681h1.114l-.278,10.589h-.279l-1.114-.279-4.18-7.8-.557.279c.091,2.309.467,6.442-.557,7.8l-.557-.279Zm10.867,0h1.114V51.712l-.557.558-.557-.279Zm3.065,0c1.142.161.833-.013,1.393.558l2.507,8.359h.558l2.507-8.917h1.115v.836c-.935,2.613-2.083,10.382-5.016,9.195C114.071,48.4,113.05,45.025,112.028,41.681Zm10.031,0h6.13L127.91,42.8h-4.458V46.14h3.9l-.279,1.115c-3.464-.019-3.356.231-3.9,2.229l.278,1.672c1.776-.093,4.062-.183,5.016.557l-.278.558-6.13-.279Zm8.917,0c2.971-.113,5.208.112,6.687,1.115.643,2.961-.44,3.554-1.95,5.016l2.229,4.459h-.836l-.836-.558-2.229-3.9-1.95.279v4.18l-1.115-.279Zm18.39,0h1.115V51.712l-1.115.558V41.681Zm6.687,1.115c-1.75.147-2.708.265-3.343-1.115h7.8l-.279,1.115-3.065.279v9.2h-.836l-.279-.279Zm5.294-1.115h.836l2.786,4.737.557-.279,1.951-4.458h1.114v.279c-.341.767-4.065,10.255-4.179,10.31C164.526,46.954,162.542,45.4,161.347,41.681Zm23.685,0h6.13l-.279,1.115h-4.458v3.623h3.9l-.279,1.114h-3.622q-.139,2.369-.279,4.737l-1.115-.279Zm-52.384.836a7.153,7.153,0,0,0-.279,4.18l2.786-.279,1.393-.836-.278-1.95-.557-.558Zm44.3,0-1.393,1.393c-1.042,1.149-.984,3.743-.558,5.573a9.691,9.691,0,0,0,2.508,1.95,5.363,5.363,0,0,0,3.065-1.393,13.566,13.566,0,0,0,0-6.13L178.9,42.518ZM153.546,60.35l2.786,1.115.557.278-.557.836a3.793,3.793,0,0,0-4.458,0v1.393l5.015,2.786.557,1.672-1.114,2.508a8.188,8.188,0,0,1-6.13-.557l.557-1.115a5.319,5.319,0,0,0,4.737.836,2.491,2.491,0,0,0-.279-3.065l-4.18-1.951-.557-2.507A15.133,15.133,0,0,1,153.546,60.35Zm10.31,0,2.786,1.393-.557.557a4.61,4.61,0,0,0-5.016.836,14.3,14.3,0,0,0,0,5.851l1.672,1.393a11.033,11.033,0,0,0,3.9-.836l.278.558c-1.011,1.214-2.091,1.477-4.458,1.393-3.476-1.953-3.781-5.5-2.229-9.474Zm33.437,0c1.712.269,2.579.344,3.065,1.951-1.253-.286-2.552-.857-3.9-.279l-1.951,1.672c-.111,2.89-.327,5.357,1.951,6.409,1.723.472,2.691-.151,4.18-.558-.35,1.232-.353,1.17-1.393,1.672C191.773,73.613,191.414,63.226,197.292,60.35Zm17.833,0,3.065,1.393-.279.557h-.279a5.433,5.433,0,0,0-3.622-.279l-.836.558c.714,2.918,4.06,3.429,5.573,5.851l-1.115,2.508a7.55,7.55,0,0,1-6.13-.557v-.558l.557-.557c1.605.777,2.446,1.236,4.458.836l.558-.836c.378-1.169-.006-1.362-.558-2.229-2.458-.564-4.554-1.5-4.737-4.458l1.95-1.672Zm-125.388.279,1.393.279c1.114,3.343,2.229,6.716,3.343,10.031l-.557.558h-.557l-1.115-3.344h-4.18A4.906,4.906,0,0,1,86.672,71.5l-.836-.279v-.279Zm6.966,0c3.044-.111,4.725.326,6.409,1.393l.278,2.508-1.114,1.95-4.737.836c.087,1.621.1,3.339-.557,4.18l-.557-.279Zm9.474,0a15.53,15.53,0,0,1,5.851.836l.836,3.065-1.115,1.95-4.737.836c.087,1.621.1,3.339-.557,4.18l-.557-.279Q106.037,65.924,106.177,60.629Zm9.474,0,1.114.558c-.051,3.166-.405,7.213.279,9.2l4.458.278-.557.836-5.573-.279Q115.511,65.924,115.65,60.629Zm8.081,0,1.114.558-.278,10.31h-.836l-.279-.279Q123.592,65.924,123.731,60.629Zm4.737,0c1.934-.093,4.779-.15,5.852.558l-.279.557-4.737.279c-.074,1.385-.087,2.423.558,3.065,1.834.736,2.931-.51,3.622,1.115l-4.18.279q.14,1.951.279,3.9h4.737l-.279,1.115c-2.682.145-4.924.218-6.13-1.115Q128.189,65.506,128.468,60.629Zm8.917,0a9.526,9.526,0,0,1,6.409,1.672,11.8,11.8,0,0,1,.278,6.688l-2.229,1.95c-1.56.619-3.7.933-5.016-.279C137.013,67.345,137.2,63.972,137.384,60.629Zm32.323,0,1.114.558v9.752l-.278.558-1.115-.279Q169.568,65.924,169.707,60.629Zm5.573,1.115q.14,1.811.279,3.622h3.622V66.2l-3.9.279q.14,1.951.279,3.9c1.723-.091,3.821-.155,4.737.557v.279h-6.409q.14-5.293.279-10.588c2.269-.169,5.164-.507,5.851,1.115Zm7.8-1.115,1.393.279,4.179,8.081h.557c-.091-2.417-.526-6.915.558-8.36l.557.279q-.14,5.294-.279,10.589h-.278l-1.115-.558-4.458-7.8h-.279c.091,2.417.526,6.915-.557,8.359l-.557-.279Q182.942,65.924,183.082,60.629Zm21.455,1.115.278,3.622c2.057-.236,2.95-.711,3.622.836l-3.9.279.278,3.9c1.724-.091,3.822-.155,4.737.557v.279h-6.409q.14-5.293.279-10.588c2.269-.169,5.164-.507,5.851,1.115Zm-107,0q.14,2.229.279,4.458A6.227,6.227,0,0,0,102,65.087v-.279l-.557-2.786Zm9.474,0v4.18h1.393a3.712,3.712,0,0,0,3.065-.836v-.279l-.557-2.786Zm31.487,0v8.638a5.531,5.531,0,0,0,4.179-1.393c.383-1.222.95-3.523.279-5.016l-1.951-1.95ZM89.737,62.3l-1.115,4.737h3.065V66.2l-1.393-3.9Z" transform="translate(-0.406 -1)" fill="#030303" fill-rule="evenodd"/>
</svg>
